M48
; DRILL file {KiCad (5.99.0-10548-gc49af57c2a)} date Thu Jun 24 16:06:28 2021
; FORMAT={-:-/ absolute / inch / decimal}
; #@! TF.CreationDate,2021-06-24T16:06:28+08:00
; #@! TF.GenerationSoftware,Kicad,Pcbnew,(5.99.0-10548-gc49af57c2a)
; #@! TF.FileFunction,Plated,1,2,PTH
FMAT,2
INCH
; #@! TA.AperFunction,Plated,PTH,ViaDrill
T1C0.0157
; #@! TA.AperFunction,Plated,PTH,ComponentDrill
T2C0.0197
; #@! TA.AperFunction,Plated,PTH,ComponentDrill
T3C0.0350
; #@! TA.AperFunction,Plated,PTH,ComponentDrill
T4C0.0394
; #@! TA.AperFunction,Plated,PTH,ComponentDrill
T5C0.0400
%
G90
G05
T1
X3.7165Y-2.874
X3.7992Y-2.5157
X4.122Y-2.8307
X4.6063Y-2.8346
X4.6339Y-2.9291
X4.7795Y-2.9764
T2
X3.6732Y-2.5472
X3.6752Y-2.6417
T3
X3.8504Y-2.3819
X3.9488Y-2.3819
X4.0472Y-2.3819
X4.1457Y-2.3819
X4.2441Y-2.3819
X4.3425Y-2.3819
T4
X3.8386Y-2.9488
X3.9331Y-2.9488
X4.3327Y-2.5295
X4.4291Y-2.5276
X4.6339Y-2.4055
X4.9331Y-2.4055
T5
X4.2352Y-2.6508
X4.3352Y-2.6508
X4.6352Y-2.6508
X4.9352Y-2.6508
T0
M30
