%TF.GenerationSoftware,KiCad,Pcbnew,(5.99.0-10548-gc49af57c2a)*%
%TF.CreationDate,2021-06-24T16:08:38+08:00*%
%TF.ProjectId,facegate-relay-v3-new,66616365-6761-4746-952d-72656c61792d,v01*%
%TF.SameCoordinates,Original*%
%TF.FileFunction,Copper,L1,Top*%
%TF.FilePolarity,Positive*%
%FSLAX46Y46*%
G04 Gerber Fmt 4.6, Leading zero omitted, Abs format (unit mm)*
G04 Created by KiCad (PCBNEW (5.99.0-10548-gc49af57c2a)) date 2021-06-24 16:08:38*
%MOMM*%
%LPD*%
G01*
G04 APERTURE LIST*
G04 Aperture macros list*
%AMRoundRect*
0 Rectangle with rounded corners*
0 $1 Rounding radius*
0 $2 $3 $4 $5 $6 $7 $8 $9 X,Y pos of 4 corners*
0 Add a 4 corners polygon primitive as box body*
4,1,4,$2,$3,$4,$5,$6,$7,$8,$9,$2,$3,0*
0 Add four circle primitives for the rounded corners*
1,1,$1+$1,$2,$3*
1,1,$1+$1,$4,$5*
1,1,$1+$1,$6,$7*
1,1,$1+$1,$8,$9*
0 Add four rect primitives between the rounded corners*
20,1,$1+$1,$2,$3,$4,$5,0*
20,1,$1+$1,$4,$5,$6,$7,0*
20,1,$1+$1,$6,$7,$8,$9,0*
20,1,$1+$1,$8,$9,$2,$3,0*%
G04 Aperture macros list end*
%TA.AperFunction,ComponentPad*%
%ADD10C,2.000000*%
%TD*%
%TA.AperFunction,SMDPad,CuDef*%
%ADD11RoundRect,0.135000X0.135000X0.185000X-0.135000X0.185000X-0.135000X-0.185000X0.135000X-0.185000X0*%
%TD*%
%TA.AperFunction,SMDPad,CuDef*%
%ADD12R,0.540000X0.600000*%
%TD*%
%TA.AperFunction,SMDPad,CuDef*%
%ADD13R,0.270000X0.520000*%
%TD*%
%TA.AperFunction,SMDPad,CuDef*%
%ADD14R,0.360000X0.520000*%
%TD*%
%TA.AperFunction,SMDPad,CuDef*%
%ADD15R,0.590000X0.600000*%
%TD*%
%TA.AperFunction,SMDPad,CuDef*%
%ADD16RoundRect,0.135000X-0.135000X-0.185000X0.135000X-0.185000X0.135000X0.185000X-0.135000X0.185000X0*%
%TD*%
%TA.AperFunction,SMDPad,CuDef*%
%ADD17RoundRect,0.135000X-0.185000X0.135000X-0.185000X-0.135000X0.185000X-0.135000X0.185000X0.135000X0*%
%TD*%
%TA.AperFunction,SMDPad,CuDef*%
%ADD18R,2.300000X2.100000*%
%TD*%
%TA.AperFunction,SMDPad,CuDef*%
%ADD19RoundRect,0.147500X-0.147500X-0.172500X0.147500X-0.172500X0.147500X0.172500X-0.147500X0.172500X0*%
%TD*%
%TA.AperFunction,ComponentPad*%
%ADD20C,1.000000*%
%TD*%
%TA.AperFunction,SMDPad,CuDef*%
%ADD21R,0.520000X0.270000*%
%TD*%
%TA.AperFunction,SMDPad,CuDef*%
%ADD22R,0.520000X0.360000*%
%TD*%
%TA.AperFunction,SMDPad,CuDef*%
%ADD23R,0.381000X0.660400*%
%TD*%
%TA.AperFunction,SMDPad,CuDef*%
%ADD24R,2.600000X2.200000*%
%TD*%
%TA.AperFunction,SMDPad,CuDef*%
%ADD25R,1.050000X0.450000*%
%TD*%
%TA.AperFunction,ComponentPad*%
%ADD26R,1.240000X1.240000*%
%TD*%
%TA.AperFunction,ViaPad*%
%ADD27C,0.800000*%
%TD*%
%TA.AperFunction,Conductor*%
%ADD28C,0.250000*%
%TD*%
%TA.AperFunction,Conductor*%
%ADD29C,0.500000*%
%TD*%
%TA.AperFunction,Conductor*%
%ADD30C,0.781000*%
%TD*%
G04 APERTURE END LIST*
D10*
%TO.P,NO,2,2*%
%TO.N,Net-(J9-Pad2)*%
X117700000Y-61100000D03*
%TO.P,NO,1,1*%
%TO.N,Net-(J9-Pad1)*%
X125300000Y-61100000D03*
%TD*%
D11*
%TO.P,R4,1*%
%TO.N,Net-(C1-Pad2)*%
X99720000Y-73080000D03*
%TO.P,R4,2*%
%TO.N,Net-(IC1-Pad6)*%
X98700000Y-73080000D03*
%TD*%
D12*
%TO.P,C2,1*%
%TO.N,Net-(C2-Pad1)*%
X97032000Y-73000000D03*
%TO.P,C2,2*%
%TO.N,Earth*%
X96168000Y-73000000D03*
%TD*%
D10*
%TO.P,K1,1,1*%
%TO.N,Net-(D1-Pad2)*%
X107575100Y-67330000D03*
%TO.P,K1,2,2*%
%TO.N,Net-(D1-Pad1)*%
X110115100Y-67330000D03*
%TO.P,K1,3,3*%
%TO.N,Net-(J9-Pad2)*%
X117735100Y-67330000D03*
%TO.P,K1,4,4*%
%TO.N,Net-(J9-Pad1)*%
X125355100Y-67330000D03*
%TD*%
D13*
%TO.P,Q1,1*%
%TO.N,Net-(Q1-Pad1)*%
X115400000Y-74490000D03*
%TO.P,Q1,2*%
%TO.N,Earth*%
X116200000Y-74490000D03*
D14*
%TO.P,Q1,3*%
%TO.N,Net-(D1-Pad2)*%
X115800000Y-73510000D03*
%TD*%
D15*
%TO.P,C1,1*%
%TO.N,Earth*%
X104707000Y-72700000D03*
%TO.P,C1,2*%
%TO.N,Net-(C1-Pad2)*%
X103893000Y-72700000D03*
%TD*%
D16*
%TO.P,R5,1*%
%TO.N,Net-(IC1-Pad8)*%
X98612305Y-68700000D03*
%TO.P,R5,2*%
%TO.N,Net-(J6-Pad01)*%
X99632305Y-68700000D03*
%TD*%
D17*
%TO.P,R7,1*%
%TO.N,Net-(J12-Pad01)*%
X99200000Y-65290000D03*
%TO.P,R7,2*%
%TO.N,Net-(Q2-Pad1)*%
X99200000Y-66310000D03*
%TD*%
D18*
%TO.P,D1,1*%
%TO.N,Net-(D1-Pad1)*%
X111950000Y-73800000D03*
%TO.P,D1,2*%
%TO.N,Net-(D1-Pad2)*%
X107650000Y-73800000D03*
%TD*%
D16*
%TO.P,R6,1*%
%TO.N,Net-(IC1-Pad6)*%
X98690000Y-71880000D03*
%TO.P,R6,2*%
%TO.N,Net-(R6-Pad2)*%
X99710000Y-71880000D03*
%TD*%
D19*
%TO.P,L1,2,A*%
%TO.N,Net-(L1-Pad2)*%
X120285000Y-73900000D03*
%TO.P,L1,1,K*%
%TO.N,Net-(D1-Pad2)*%
X119315000Y-73900000D03*
%TD*%
D20*
%TO.P,PB,01,01*%
%TO.N,Net-(IC1-Pad2)*%
X93350000Y-67100000D03*
%TD*%
D10*
%TO.P,J-VIN,01,01*%
%TO.N,Net-(J10-Pad01)*%
X110050000Y-64250000D03*
%TD*%
D21*
%TO.P,Q2,1*%
%TO.N,Net-(Q2-Pad1)*%
X96690000Y-66400000D03*
%TO.P,Q2,2*%
%TO.N,Earth*%
X96690000Y-65600000D03*
D22*
%TO.P,Q2,3*%
%TO.N,Net-(J13-Pad01)*%
X95710000Y-66000000D03*
%TD*%
D23*
%TO.P,U1,1,SOURCE*%
%TO.N,Net-(C1-Pad2)*%
X102025001Y-71078000D03*
%TO.P,U1,2,SOURCE*%
X102674999Y-71078000D03*
%TO.P,U1,3,SOURCE*%
X103325001Y-71078000D03*
%TO.P,U1,4,GATE*%
%TO.N,Net-(R6-Pad2)*%
X103974999Y-71078000D03*
%TO.P,U1,5,DRAIN*%
%TO.N,Net-(J10-Pad01)*%
X103974999Y-67522000D03*
%TO.P,U1,6,DRAIN*%
X103325001Y-67522000D03*
%TO.P,U1,7,DRAIN*%
X102674999Y-67522000D03*
%TO.P,U1,8,DRAIN*%
X102025001Y-67522000D03*
D24*
%TO.P,U1,9,DRAIN*%
X103000000Y-68900000D03*
%TD*%
D25*
%TO.P,IC1,1,VIN*%
%TO.N,Net-(C1-Pad2)*%
X94142305Y-68925000D03*
%TO.P,IC1,2,~PB*%
%TO.N,Net-(IC1-Pad2)*%
X94142305Y-69575000D03*
%TO.P,IC1,3,ONT*%
%TO.N,unconnected-(IC1-Pad3)*%
X94142305Y-70225000D03*
%TO.P,IC1,4,GND*%
%TO.N,Earth*%
X94142305Y-70875000D03*
%TO.P,IC1,5,~INT*%
%TO.N,Net-(IC1-Pad5)*%
X96742305Y-70875000D03*
%TO.P,IC1,6,EN/~EN*%
%TO.N,Net-(IC1-Pad6)*%
X96742305Y-70225000D03*
%TO.P,IC1,7,PDT*%
%TO.N,Net-(C2-Pad1)*%
X96742305Y-69575000D03*
%TO.P,IC1,8,~KILL*%
%TO.N,Net-(IC1-Pad8)*%
X96742305Y-68925000D03*
%TD*%
D26*
%TO.P,KILL,01,01*%
%TO.N,Net-(IC1-Pad8)*%
X100300000Y-60500000D03*
%TD*%
D11*
%TO.P,R2,2*%
%TO.N,Net-(Q1-Pad1)*%
X119290000Y-75300000D03*
%TO.P,R2,1*%
%TO.N,Net-(J4-Pad01)*%
X120310000Y-75300000D03*
%TD*%
D26*
%TO.P,LED,01,01*%
%TO.N,Net-(J12-Pad01)*%
X97800000Y-60500000D03*
%TD*%
%TO.P,3.3V,01,01*%
%TO.N,Net-(J6-Pad01)*%
X102800000Y-60500000D03*
%TD*%
D16*
%TO.P,R3,1*%
%TO.N,Net-(IC1-Pad5)*%
X98622305Y-69900000D03*
%TO.P,R3,2*%
%TO.N,Net-(J6-Pad01)*%
X99642305Y-69900000D03*
%TD*%
D10*
%TO.P,5V-IN,01,01*%
%TO.N,Net-(C1-Pad2)*%
X99900000Y-74900000D03*
%TD*%
D20*
%TO.P,LED,01,01*%
%TO.N,Net-(J13-Pad01)*%
X93300000Y-64700000D03*
%TD*%
D26*
%TO.P,INT,01,01*%
%TO.N,Net-(IC1-Pad5)*%
X105300000Y-60500000D03*
%TD*%
D10*
%TO.P,5V-GND,01,01*%
%TO.N,Earth*%
X97500000Y-74900000D03*
%TD*%
D16*
%TO.P,R1,1*%
%TO.N,Net-(D1-Pad1)*%
X119290000Y-72600000D03*
%TO.P,R1,2*%
%TO.N,Net-(L1-Pad2)*%
X120310000Y-72600000D03*
%TD*%
D26*
%TO.P,R-IN,01,01*%
%TO.N,Net-(J4-Pad01)*%
X110300000Y-60500000D03*
%TD*%
D10*
%TO.P,GND,01,01*%
%TO.N,Earth*%
X112500000Y-64200000D03*
%TD*%
D26*
%TO.P,5V,01,01*%
%TO.N,Net-(D1-Pad1)*%
X107800000Y-60500000D03*
%TD*%
D27*
%TO.N,Net-(D1-Pad1)*%
X117000000Y-72000000D03*
%TO.N,Net-(J4-Pad01)*%
X121400000Y-75600000D03*
%TO.N,Earth*%
X96500000Y-63900000D03*
X94400000Y-73000000D03*
X104700000Y-71900000D03*
X117700000Y-74400000D03*
%TD*%
D28*
%TO.N,Net-(Q2-Pad1)*%
X99110000Y-66400000D02*
X96690000Y-66400000D01*
X99200000Y-66310000D02*
X99110000Y-66400000D01*
%TO.N,Net-(IC1-Pad5)*%
X96767305Y-70900000D02*
X98622305Y-70900000D01*
X96742305Y-70875000D02*
X96767305Y-70900000D01*
X101200000Y-66200000D02*
X105300000Y-62100000D01*
X105300000Y-62100000D02*
X105300000Y-60500000D01*
X100068022Y-70900000D02*
X101200000Y-69768022D01*
X101200000Y-69768022D02*
X101200000Y-66200000D01*
X98622305Y-70900000D02*
X100068022Y-70900000D01*
X98622305Y-69900000D02*
X98622305Y-70900000D01*
%TO.N,Net-(J12-Pad01)*%
X97800000Y-62500000D02*
X97800000Y-60500000D01*
X99200000Y-65290000D02*
X99200000Y-63900000D01*
X99200000Y-63900000D02*
X97800000Y-62500000D01*
%TO.N,Net-(J6-Pad01)*%
X100700000Y-63900000D02*
X102800000Y-61800000D01*
X102800000Y-61800000D02*
X102800000Y-60500000D01*
X100700000Y-67000000D02*
X100700000Y-63900000D01*
X99632305Y-68067695D02*
X100700000Y-67000000D01*
X99632305Y-68700000D02*
X99632305Y-68067695D01*
%TO.N,Net-(IC1-Pad8)*%
X97200000Y-67700000D02*
X96742305Y-68157695D01*
X100200000Y-60600000D02*
X100200000Y-66700000D01*
X96742305Y-68157695D02*
X96742305Y-68925000D01*
X100300000Y-60500000D02*
X100200000Y-60600000D01*
X100200000Y-66700000D02*
X99200000Y-67700000D01*
X99200000Y-67700000D02*
X97200000Y-67700000D01*
%TO.N,Net-(J6-Pad01)*%
X99642305Y-69900000D02*
X99600000Y-69857695D01*
X99600000Y-69857695D02*
X99600000Y-68732305D01*
X99600000Y-68732305D02*
X99632305Y-68700000D01*
%TO.N,Net-(Q1-Pad1)*%
X115400000Y-74900000D02*
X115800000Y-75300000D01*
X115800000Y-75300000D02*
X119290000Y-75300000D01*
X115400000Y-74490000D02*
X115400000Y-74900000D01*
%TO.N,Net-(D1-Pad2)*%
X118925000Y-73510000D02*
X119315000Y-73900000D01*
X118610000Y-73510000D02*
X118925000Y-73510000D01*
X108450000Y-76100000D02*
X112810880Y-76100000D01*
X112810880Y-76100000D02*
X115400880Y-73510000D01*
X107650000Y-75300000D02*
X108450000Y-76100000D01*
X115400880Y-73510000D02*
X115800000Y-73510000D01*
X107650000Y-74000000D02*
X107650000Y-75300000D01*
X107575100Y-67330000D02*
X107575100Y-73925100D01*
X107575100Y-73925100D02*
X107650000Y-74000000D01*
%TO.N,Net-(D1-Pad1)*%
X111950000Y-67850000D02*
X111430000Y-67330000D01*
X111950000Y-74000000D02*
X111950000Y-67850000D01*
X111430000Y-67330000D02*
X110115100Y-67330000D01*
X114150000Y-71800000D02*
X111950000Y-74000000D01*
X116800000Y-71800000D02*
X114150000Y-71800000D01*
X117000000Y-72000000D02*
X116800000Y-71800000D01*
%TO.N,Net-(R6-Pad2)*%
X103974999Y-70634987D02*
X103974999Y-71078000D01*
X101674892Y-70423289D02*
X103763301Y-70423289D01*
X103763301Y-70423289D02*
X103974999Y-70634987D01*
X100218181Y-71880000D02*
X101674892Y-70423289D01*
X99710000Y-71880000D02*
X100218181Y-71880000D01*
%TO.N,Net-(IC1-Pad6)*%
X98700000Y-71900000D02*
X98700000Y-73080000D01*
X97822305Y-71900000D02*
X98700000Y-71900000D01*
%TO.N,Net-(C2-Pad1)*%
X96749520Y-72349520D02*
X97032000Y-72632000D01*
X95849520Y-72349520D02*
X96749520Y-72349520D01*
X95443274Y-71943274D02*
X95849520Y-72349520D01*
X95443274Y-70099031D02*
X95443274Y-71943274D01*
X95967305Y-69575000D02*
X95443274Y-70099031D01*
X97032000Y-72632000D02*
X97032000Y-73000000D01*
X96742305Y-69575000D02*
X95967305Y-69575000D01*
%TO.N,Net-(IC1-Pad6)*%
X95892794Y-71692794D02*
X96100000Y-71900000D01*
X96100000Y-71900000D02*
X97822305Y-71900000D01*
X95892794Y-70299511D02*
X95892794Y-71692794D01*
X96742305Y-70225000D02*
X95967305Y-70225000D01*
X95967305Y-70225000D02*
X95892794Y-70299511D01*
%TO.N,Net-(D1-Pad1)*%
X117600000Y-72600000D02*
X119290000Y-72600000D01*
X117000000Y-72000000D02*
X117600000Y-72600000D01*
%TO.N,Net-(J4-Pad01)*%
X121100000Y-75300000D02*
X120310000Y-75300000D01*
X121400000Y-75600000D02*
X121100000Y-75300000D01*
%TO.N,Net-(D1-Pad1)*%
X119290000Y-72590000D02*
X119290000Y-72600000D01*
%TO.N,Net-(D1-Pad2)*%
X118610000Y-73510000D02*
X118625000Y-73510000D01*
X115800000Y-73510000D02*
X118610000Y-73510000D01*
%TO.N,Net-(C1-Pad2)*%
X99720000Y-73080000D02*
X99720000Y-73187695D01*
X94067305Y-69000000D02*
X94142305Y-68925000D01*
%TO.N,Net-(L1-Pad2)*%
X120285000Y-73900000D02*
X120285000Y-72625000D01*
X120285000Y-72625000D02*
X120310000Y-72600000D01*
%TO.N,Earth*%
X94142305Y-70875000D02*
X94142305Y-72742305D01*
X96690000Y-64090000D02*
X96500000Y-63900000D01*
X104707000Y-71907000D02*
X104700000Y-71900000D01*
X94142305Y-72742305D02*
X94400000Y-73000000D01*
X116200000Y-74490000D02*
X117610000Y-74490000D01*
D29*
X104700000Y-71900000D02*
X104700000Y-72707000D01*
D28*
X94400000Y-73000000D02*
X96168000Y-73000000D01*
X104707000Y-72700000D02*
X104707000Y-71907000D01*
X117610000Y-74490000D02*
X117700000Y-74400000D01*
X96690000Y-65600000D02*
X96690000Y-64090000D01*
%TO.N,Net-(IC1-Pad8)*%
X96742305Y-68925000D02*
X98387305Y-68925000D01*
X98387305Y-68925000D02*
X98612305Y-68700000D01*
%TO.N,Net-(IC1-Pad2)*%
X93350000Y-67100000D02*
X94057106Y-67100000D01*
X94057106Y-67100000D02*
X95100000Y-68142894D01*
X94217785Y-69499520D02*
X94142305Y-69575000D01*
X95100000Y-68142894D02*
X95100000Y-69500000D01*
X94242794Y-69675489D02*
X94142305Y-69575000D01*
X95100000Y-69500000D02*
X94924511Y-69675489D01*
X94924511Y-69675489D02*
X94242794Y-69675489D01*
D30*
%TO.N,Net-(J9-Pad1)*%
X125300000Y-61100000D02*
X125300000Y-67274900D01*
D28*
X125300000Y-67274900D02*
X125355100Y-67330000D01*
%TO.N,Net-(J9-Pad2)*%
X117700000Y-67294900D02*
X117735100Y-67330000D01*
D30*
X117700000Y-61100000D02*
X117700000Y-67294900D01*
D28*
%TO.N,Net-(J13-Pad01)*%
X93300000Y-64700000D02*
X94410000Y-64700000D01*
X94410000Y-64700000D02*
X95710000Y-66000000D01*
%TO.N,Net-(R6-Pad2)*%
X99710000Y-71880000D02*
X99866711Y-71723289D01*
%TD*%
%TA.AperFunction,Conductor*%
%TO.N,Net-(J10-Pad01)*%
G36*
X111799799Y-62600000D02*
G01*
X111800466Y-62600004D01*
X113846530Y-62615531D01*
X115175516Y-62625616D01*
X115243482Y-62646134D01*
X115289567Y-62700141D01*
X115300558Y-62751046D01*
X115307064Y-64203704D01*
X115313648Y-65673903D01*
X115293951Y-65742112D01*
X115240504Y-65788845D01*
X115188115Y-65800466D01*
X106032330Y-65834308D01*
X106014213Y-65834375D01*
X106014232Y-65847847D01*
X106020093Y-70016270D01*
X106000187Y-70084419D01*
X105946596Y-70130987D01*
X105892819Y-70142441D01*
X103918444Y-70122456D01*
X103881617Y-70115769D01*
X103876339Y-70112721D01*
X103839233Y-70106178D01*
X103828501Y-70103799D01*
X103802757Y-70096900D01*
X103802752Y-70096900D01*
X103792106Y-70094047D01*
X103781126Y-70095008D01*
X103781118Y-70095007D01*
X103754811Y-70097309D01*
X103743829Y-70097789D01*
X101826000Y-70097789D01*
X101757879Y-70077787D01*
X101711386Y-70024131D01*
X101700000Y-69971789D01*
X101700000Y-66212517D01*
X101720002Y-66144396D01*
X101736905Y-66123422D01*
X103691882Y-64168444D01*
X111294913Y-64168444D01*
X111309342Y-64388582D01*
X111363646Y-64602404D01*
X111456006Y-64802750D01*
X111583331Y-64982910D01*
X111741354Y-65136849D01*
X111746150Y-65140054D01*
X111746153Y-65140056D01*
X111820590Y-65189793D01*
X111924785Y-65259414D01*
X111930088Y-65261692D01*
X111930091Y-65261694D01*
X112122173Y-65344219D01*
X112127480Y-65346499D01*
X112206501Y-65364380D01*
X112337014Y-65393912D01*
X112337019Y-65393913D01*
X112342651Y-65395187D01*
X112348422Y-65395414D01*
X112348424Y-65395414D01*
X112416147Y-65398075D01*
X112563091Y-65403848D01*
X112672255Y-65388020D01*
X112775704Y-65373021D01*
X112775709Y-65373020D01*
X112781418Y-65372192D01*
X112786882Y-65370337D01*
X112786887Y-65370336D01*
X112984853Y-65303135D01*
X112990321Y-65301279D01*
X113182803Y-65193484D01*
X113352417Y-65052417D01*
X113493484Y-64882803D01*
X113601279Y-64690321D01*
X113672192Y-64481418D01*
X113673020Y-64475709D01*
X113673021Y-64475704D01*
X113703315Y-64266765D01*
X113703848Y-64263091D01*
X113705500Y-64200000D01*
X113685314Y-63980315D01*
X113625431Y-63767987D01*
X113613698Y-63744193D01*
X113530413Y-63575309D01*
X113527858Y-63570128D01*
X113511747Y-63548552D01*
X113399314Y-63397987D01*
X113399313Y-63397986D01*
X113395861Y-63393363D01*
X113391625Y-63389447D01*
X113238103Y-63247533D01*
X113238101Y-63247531D01*
X113233862Y-63243613D01*
X113047286Y-63125892D01*
X112842380Y-63044143D01*
X112836720Y-63043017D01*
X112836716Y-63043016D01*
X112631676Y-63002231D01*
X112631673Y-63002231D01*
X112626009Y-63001104D01*
X112620234Y-63001028D01*
X112620230Y-63001028D01*
X112509323Y-62999576D01*
X112405418Y-62998216D01*
X112399721Y-62999195D01*
X112399720Y-62999195D01*
X112193691Y-63034597D01*
X112187994Y-63035576D01*
X111981019Y-63111933D01*
X111976058Y-63114885D01*
X111976057Y-63114885D01*
X111796393Y-63221774D01*
X111796390Y-63221776D01*
X111791425Y-63224730D01*
X111625561Y-63370189D01*
X111488983Y-63543438D01*
X111486294Y-63548549D01*
X111486292Y-63548552D01*
X111433950Y-63648038D01*
X111386263Y-63738675D01*
X111320843Y-63949362D01*
X111294913Y-64168444D01*
X103691882Y-64168444D01*
X105224297Y-62636029D01*
X105286609Y-62602003D01*
X105312874Y-62599125D01*
X107499311Y-62590130D01*
X107500118Y-62590129D01*
X111799799Y-62600000D01*
G37*
%TD.AperFunction*%
%TD*%
%TA.AperFunction,Conductor*%
%TO.N,Net-(C1-Pad2)*%
G36*
X115442121Y-58420002D02*
G01*
X115488614Y-58473658D01*
X115500000Y-58526000D01*
X115500000Y-62351079D01*
X115479998Y-62419200D01*
X115426342Y-62465693D01*
X115356068Y-62475797D01*
X115311654Y-62460573D01*
X115307431Y-62458168D01*
X115307428Y-62458167D01*
X115301283Y-62454668D01*
X115294513Y-62452624D01*
X115294510Y-62452623D01*
X115267580Y-62444494D01*
X115233317Y-62434150D01*
X115177034Y-62425622D01*
X113848048Y-62415537D01*
X111801984Y-62400010D01*
X111801665Y-62400008D01*
X111801004Y-62400004D01*
X111800998Y-62400004D01*
X111800258Y-62400001D01*
X107500577Y-62390130D01*
X107499870Y-62390129D01*
X107499063Y-62390130D01*
X107498488Y-62390132D01*
X105721985Y-62397441D01*
X105653784Y-62377719D01*
X105607071Y-62324255D01*
X105596678Y-62254024D01*
X105599773Y-62238787D01*
X105600073Y-62237669D01*
X105603366Y-62227232D01*
X105605059Y-62222580D01*
X105610568Y-62213038D01*
X105617111Y-62175930D01*
X105619491Y-62165199D01*
X105626388Y-62139458D01*
X105629243Y-62128805D01*
X105625980Y-62091513D01*
X105625500Y-62080530D01*
X105625500Y-61451500D01*
X105645502Y-61383379D01*
X105699158Y-61336886D01*
X105751500Y-61325500D01*
X105920000Y-61325500D01*
X105944831Y-61320561D01*
X105986472Y-61312278D01*
X105986474Y-61312277D01*
X105998641Y-61309857D01*
X106008956Y-61302965D01*
X106008958Y-61302964D01*
X106054994Y-61272203D01*
X106065310Y-61265310D01*
X106072203Y-61254994D01*
X106102964Y-61208958D01*
X106102965Y-61208956D01*
X106109857Y-61198641D01*
X106116929Y-61163091D01*
X106124293Y-61126067D01*
X106125500Y-61120000D01*
X106125500Y-59880000D01*
X106974500Y-59880000D01*
X106974500Y-61120000D01*
X106975707Y-61126067D01*
X106983072Y-61163091D01*
X106990143Y-61198641D01*
X106997035Y-61208956D01*
X106997036Y-61208958D01*
X107027797Y-61254994D01*
X107034690Y-61265310D01*
X107045006Y-61272203D01*
X107091042Y-61302964D01*
X107091044Y-61302965D01*
X107101359Y-61309857D01*
X107113526Y-61312277D01*
X107113528Y-61312278D01*
X107155169Y-61320561D01*
X107180000Y-61325500D01*
X108420000Y-61325500D01*
X108444831Y-61320561D01*
X108486472Y-61312278D01*
X108486474Y-61312277D01*
X108498641Y-61309857D01*
X108508956Y-61302965D01*
X108508958Y-61302964D01*
X108554994Y-61272203D01*
X108565310Y-61265310D01*
X108572203Y-61254994D01*
X108602964Y-61208958D01*
X108602965Y-61208956D01*
X108609857Y-61198641D01*
X108616929Y-61163091D01*
X108624293Y-61126067D01*
X108625500Y-61120000D01*
X108625500Y-59880000D01*
X109474500Y-59880000D01*
X109474500Y-61120000D01*
X109475707Y-61126067D01*
X109483072Y-61163091D01*
X109490143Y-61198641D01*
X109497035Y-61208956D01*
X109497036Y-61208958D01*
X109527797Y-61254994D01*
X109534690Y-61265310D01*
X109545006Y-61272203D01*
X109591042Y-61302964D01*
X109591044Y-61302965D01*
X109601359Y-61309857D01*
X109613526Y-61312277D01*
X109613528Y-61312278D01*
X109655169Y-61320561D01*
X109680000Y-61325500D01*
X110920000Y-61325500D01*
X110944831Y-61320561D01*
X110986472Y-61312278D01*
X110986474Y-61312277D01*
X110998641Y-61309857D01*
X111008956Y-61302965D01*
X111008958Y-61302964D01*
X111054994Y-61272203D01*
X111065310Y-61265310D01*
X111072203Y-61254994D01*
X111102964Y-61208958D01*
X111102965Y-61208956D01*
X111109857Y-61198641D01*
X111116929Y-61163091D01*
X111124293Y-61126067D01*
X111125500Y-61120000D01*
X111125500Y-59880000D01*
X111109857Y-59801359D01*
X111102965Y-59791044D01*
X111102964Y-59791042D01*
X111072203Y-59745006D01*
X111065310Y-59734690D01*
X111054994Y-59727797D01*
X111008958Y-59697036D01*
X111008956Y-59697035D01*
X110998641Y-59690143D01*
X110986474Y-59687723D01*
X110986472Y-59687722D01*
X110939963Y-59678471D01*
X110920000Y-59674500D01*
X109680000Y-59674500D01*
X109660037Y-59678471D01*
X109613528Y-59687722D01*
X109613526Y-59687723D01*
X109601359Y-59690143D01*
X109591044Y-59697035D01*
X109591042Y-59697036D01*
X109545006Y-59727797D01*
X109534690Y-59734690D01*
X109527797Y-59745006D01*
X109497036Y-59791042D01*
X109497035Y-59791044D01*
X109490143Y-59801359D01*
X109474500Y-59880000D01*
X108625500Y-59880000D01*
X108609857Y-59801359D01*
X108602965Y-59791044D01*
X108602964Y-59791042D01*
X108572203Y-59745006D01*
X108565310Y-59734690D01*
X108554994Y-59727797D01*
X108508958Y-59697036D01*
X108508956Y-59697035D01*
X108498641Y-59690143D01*
X108486474Y-59687723D01*
X108486472Y-59687722D01*
X108439963Y-59678471D01*
X108420000Y-59674500D01*
X107180000Y-59674500D01*
X107160037Y-59678471D01*
X107113528Y-59687722D01*
X107113526Y-59687723D01*
X107101359Y-59690143D01*
X107091044Y-59697035D01*
X107091042Y-59697036D01*
X107045006Y-59727797D01*
X107034690Y-59734690D01*
X107027797Y-59745006D01*
X106997036Y-59791042D01*
X106997035Y-59791044D01*
X106990143Y-59801359D01*
X106974500Y-59880000D01*
X106125500Y-59880000D01*
X106109857Y-59801359D01*
X106102965Y-59791044D01*
X106102964Y-59791042D01*
X106072203Y-59745006D01*
X106065310Y-59734690D01*
X106054994Y-59727797D01*
X106008958Y-59697036D01*
X106008956Y-59697035D01*
X105998641Y-59690143D01*
X105986474Y-59687723D01*
X105986472Y-59687722D01*
X105939963Y-59678471D01*
X105920000Y-59674500D01*
X104680000Y-59674500D01*
X104660037Y-59678471D01*
X104613528Y-59687722D01*
X104613526Y-59687723D01*
X104601359Y-59690143D01*
X104591044Y-59697035D01*
X104591042Y-59697036D01*
X104545006Y-59727797D01*
X104534690Y-59734690D01*
X104527797Y-59745006D01*
X104497036Y-59791042D01*
X104497035Y-59791044D01*
X104490143Y-59801359D01*
X104474500Y-59880000D01*
X104474500Y-61120000D01*
X104475707Y-61126067D01*
X104483072Y-61163091D01*
X104490143Y-61198641D01*
X104497035Y-61208956D01*
X104497036Y-61208958D01*
X104527797Y-61254994D01*
X104534690Y-61265310D01*
X104545006Y-61272203D01*
X104591042Y-61302964D01*
X104591044Y-61302965D01*
X104601359Y-61309857D01*
X104613526Y-61312277D01*
X104613528Y-61312278D01*
X104655169Y-61320561D01*
X104680000Y-61325500D01*
X104848500Y-61325500D01*
X104916621Y-61345502D01*
X104963114Y-61399158D01*
X104974500Y-61451500D01*
X104974500Y-61912984D01*
X104954498Y-61981105D01*
X104937595Y-62002079D01*
X101240595Y-65699078D01*
X101178283Y-65733104D01*
X101107467Y-65728039D01*
X101050632Y-65685492D01*
X101025821Y-65618972D01*
X101025500Y-65609983D01*
X101025500Y-64087017D01*
X101045502Y-64018896D01*
X101062405Y-63997922D01*
X103016392Y-62043935D01*
X103024496Y-62036508D01*
X103044732Y-62019528D01*
X103053178Y-62012441D01*
X103072019Y-61979806D01*
X103077923Y-61970540D01*
X103093211Y-61948707D01*
X103093214Y-61948701D01*
X103099534Y-61939675D01*
X103102387Y-61929030D01*
X103103865Y-61925859D01*
X103105058Y-61922582D01*
X103110568Y-61913038D01*
X103117113Y-61875924D01*
X103119491Y-61865197D01*
X103126389Y-61839455D01*
X103126389Y-61839453D01*
X103129242Y-61828806D01*
X103125979Y-61791510D01*
X103125500Y-61780528D01*
X103125500Y-61451500D01*
X103145502Y-61383379D01*
X103199158Y-61336886D01*
X103251500Y-61325500D01*
X103420000Y-61325500D01*
X103444831Y-61320561D01*
X103486472Y-61312278D01*
X103486474Y-61312277D01*
X103498641Y-61309857D01*
X103508956Y-61302965D01*
X103508958Y-61302964D01*
X103554994Y-61272203D01*
X103565310Y-61265310D01*
X103572203Y-61254994D01*
X103602964Y-61208958D01*
X103602965Y-61208956D01*
X103609857Y-61198641D01*
X103616929Y-61163091D01*
X103624293Y-61126067D01*
X103625500Y-61120000D01*
X103625500Y-59880000D01*
X103609857Y-59801359D01*
X103602965Y-59791044D01*
X103602964Y-59791042D01*
X103572203Y-59745006D01*
X103565310Y-59734690D01*
X103554994Y-59727797D01*
X103508958Y-59697036D01*
X103508956Y-59697035D01*
X103498641Y-59690143D01*
X103486474Y-59687723D01*
X103486472Y-59687722D01*
X103439963Y-59678471D01*
X103420000Y-59674500D01*
X102180000Y-59674500D01*
X102160037Y-59678471D01*
X102113528Y-59687722D01*
X102113526Y-59687723D01*
X102101359Y-59690143D01*
X102091044Y-59697035D01*
X102091042Y-59697036D01*
X102045006Y-59727797D01*
X102034690Y-59734690D01*
X102027797Y-59745006D01*
X101997036Y-59791042D01*
X101997035Y-59791044D01*
X101990143Y-59801359D01*
X101974500Y-59880000D01*
X101974500Y-61120000D01*
X101975707Y-61126067D01*
X101983072Y-61163091D01*
X101990143Y-61198641D01*
X101997035Y-61208956D01*
X101997036Y-61208958D01*
X102027797Y-61254994D01*
X102034690Y-61265310D01*
X102045006Y-61272203D01*
X102091042Y-61302964D01*
X102091044Y-61302965D01*
X102101359Y-61309857D01*
X102113526Y-61312277D01*
X102113528Y-61312278D01*
X102155169Y-61320561D01*
X102180000Y-61325500D01*
X102348500Y-61325500D01*
X102416621Y-61345502D01*
X102463114Y-61399158D01*
X102474500Y-61451500D01*
X102474500Y-61612983D01*
X102454498Y-61681104D01*
X102437595Y-61702078D01*
X100740595Y-63399078D01*
X100678283Y-63433104D01*
X100607468Y-63428039D01*
X100550632Y-63385492D01*
X100525821Y-63318972D01*
X100525500Y-63309983D01*
X100525500Y-61451500D01*
X100545502Y-61383379D01*
X100599158Y-61336886D01*
X100651500Y-61325500D01*
X100920000Y-61325500D01*
X100944831Y-61320561D01*
X100986472Y-61312278D01*
X100986474Y-61312277D01*
X100998641Y-61309857D01*
X101008956Y-61302965D01*
X101008958Y-61302964D01*
X101054994Y-61272203D01*
X101065310Y-61265310D01*
X101072203Y-61254994D01*
X101102964Y-61208958D01*
X101102965Y-61208956D01*
X101109857Y-61198641D01*
X101116929Y-61163091D01*
X101124293Y-61126067D01*
X101125500Y-61120000D01*
X101125500Y-59880000D01*
X101109857Y-59801359D01*
X101102965Y-59791044D01*
X101102964Y-59791042D01*
X101072203Y-59745006D01*
X101065310Y-59734690D01*
X101054994Y-59727797D01*
X101008958Y-59697036D01*
X101008956Y-59697035D01*
X100998641Y-59690143D01*
X100986474Y-59687723D01*
X100986472Y-59687722D01*
X100939963Y-59678471D01*
X100920000Y-59674500D01*
X99680000Y-59674500D01*
X99660037Y-59678471D01*
X99613528Y-59687722D01*
X99613526Y-59687723D01*
X99601359Y-59690143D01*
X99591044Y-59697035D01*
X99591042Y-59697036D01*
X99545006Y-59727797D01*
X99534690Y-59734690D01*
X99527797Y-59745006D01*
X99497036Y-59791042D01*
X99497035Y-59791044D01*
X99490143Y-59801359D01*
X99474500Y-59880000D01*
X99474500Y-61120000D01*
X99475707Y-61126067D01*
X99483072Y-61163091D01*
X99490143Y-61198641D01*
X99497035Y-61208956D01*
X99497036Y-61208958D01*
X99527797Y-61254994D01*
X99534690Y-61265310D01*
X99545006Y-61272203D01*
X99591042Y-61302964D01*
X99591044Y-61302965D01*
X99601359Y-61309857D01*
X99613526Y-61312277D01*
X99613528Y-61312278D01*
X99655169Y-61320561D01*
X99680000Y-61325500D01*
X99748500Y-61325500D01*
X99816621Y-61345502D01*
X99863114Y-61399158D01*
X99874500Y-61451500D01*
X99874500Y-64865436D01*
X99854498Y-64933557D01*
X99800842Y-64980050D01*
X99730568Y-64990154D01*
X99665988Y-64960660D01*
X99651977Y-64946426D01*
X99651351Y-64945680D01*
X99645838Y-64936131D01*
X99570508Y-64872921D01*
X99531182Y-64813811D01*
X99525500Y-64776400D01*
X99525500Y-63919472D01*
X99525980Y-63908490D01*
X99528282Y-63882183D01*
X99528281Y-63882175D01*
X99529242Y-63871195D01*
X99526389Y-63860549D01*
X99526389Y-63860544D01*
X99519490Y-63834800D01*
X99517110Y-63824065D01*
X99512483Y-63797821D01*
X99512482Y-63797819D01*
X99510568Y-63786962D01*
X99505055Y-63777414D01*
X99503859Y-63774128D01*
X99502387Y-63770972D01*
X99499535Y-63760325D01*
X99487604Y-63743285D01*
X99477919Y-63729452D01*
X99472015Y-63720184D01*
X99458692Y-63697109D01*
X99458691Y-63697108D01*
X99453178Y-63687559D01*
X99424496Y-63663492D01*
X99416392Y-63656065D01*
X98162405Y-62402078D01*
X98128379Y-62339766D01*
X98125500Y-62312983D01*
X98125500Y-61451500D01*
X98145502Y-61383379D01*
X98199158Y-61336886D01*
X98251500Y-61325500D01*
X98420000Y-61325500D01*
X98444831Y-61320561D01*
X98486472Y-61312278D01*
X98486474Y-61312277D01*
X98498641Y-61309857D01*
X98508956Y-61302965D01*
X98508958Y-61302964D01*
X98554994Y-61272203D01*
X98565310Y-61265310D01*
X98572203Y-61254994D01*
X98602964Y-61208958D01*
X98602965Y-61208956D01*
X98609857Y-61198641D01*
X98616929Y-61163091D01*
X98624293Y-61126067D01*
X98625500Y-61120000D01*
X98625500Y-59880000D01*
X98609857Y-59801359D01*
X98602965Y-59791044D01*
X98602964Y-59791042D01*
X98572203Y-59745006D01*
X98565310Y-59734690D01*
X98554994Y-59727797D01*
X98508958Y-59697036D01*
X98508956Y-59697035D01*
X98498641Y-59690143D01*
X98486474Y-59687723D01*
X98486472Y-59687722D01*
X98439963Y-59678471D01*
X98420000Y-59674500D01*
X97180000Y-59674500D01*
X97160037Y-59678471D01*
X97113528Y-59687722D01*
X97113526Y-59687723D01*
X97101359Y-59690143D01*
X97091044Y-59697035D01*
X97091042Y-59697036D01*
X97045006Y-59727797D01*
X97034690Y-59734690D01*
X97027797Y-59745006D01*
X96997036Y-59791042D01*
X96997035Y-59791044D01*
X96990143Y-59801359D01*
X96974500Y-59880000D01*
X96974500Y-61120000D01*
X96975707Y-61126067D01*
X96983072Y-61163091D01*
X96990143Y-61198641D01*
X96997035Y-61208956D01*
X96997036Y-61208958D01*
X97027797Y-61254994D01*
X97034690Y-61265310D01*
X97045006Y-61272203D01*
X97091042Y-61302964D01*
X97091044Y-61302965D01*
X97101359Y-61309857D01*
X97113526Y-61312277D01*
X97113528Y-61312278D01*
X97155169Y-61320561D01*
X97180000Y-61325500D01*
X97348500Y-61325500D01*
X97416621Y-61345502D01*
X97463114Y-61399158D01*
X97474500Y-61451500D01*
X97474500Y-62480528D01*
X97474020Y-62491510D01*
X97471718Y-62517817D01*
X97471719Y-62517825D01*
X97470758Y-62528805D01*
X97473611Y-62539451D01*
X97473611Y-62539456D01*
X97480510Y-62565200D01*
X97482889Y-62575932D01*
X97489432Y-62613038D01*
X97494945Y-62622586D01*
X97496141Y-62625872D01*
X97497613Y-62629028D01*
X97500465Y-62639675D01*
X97506789Y-62648706D01*
X97506789Y-62648707D01*
X97522081Y-62670548D01*
X97527985Y-62679816D01*
X97541308Y-62702891D01*
X97546822Y-62712441D01*
X97555267Y-62719527D01*
X97575504Y-62736508D01*
X97583608Y-62743935D01*
X98837595Y-63997922D01*
X98871621Y-64060234D01*
X98874500Y-64087017D01*
X98874500Y-64776170D01*
X98854498Y-64844291D01*
X98811498Y-64885290D01*
X98796131Y-64894162D01*
X98789048Y-64902603D01*
X98789047Y-64902604D01*
X98752276Y-64946426D01*
X98720118Y-64984750D01*
X98679673Y-65095873D01*
X98679500Y-65097850D01*
X98679500Y-65453356D01*
X98695035Y-65541458D01*
X98722586Y-65589177D01*
X98748143Y-65633443D01*
X98754162Y-65643869D01*
X98762603Y-65650952D01*
X98762604Y-65650953D01*
X98824246Y-65702677D01*
X98863572Y-65761787D01*
X98864698Y-65832774D01*
X98827266Y-65893102D01*
X98806258Y-65908315D01*
X98796131Y-65914162D01*
X98789048Y-65922603D01*
X98789047Y-65922604D01*
X98752276Y-65966426D01*
X98720118Y-66004750D01*
X98717251Y-66012626D01*
X98667048Y-66060494D01*
X98609312Y-66074500D01*
X97201286Y-66074500D01*
X97133165Y-66054498D01*
X97086672Y-66000842D01*
X97076568Y-65930568D01*
X97096521Y-65878498D01*
X97132964Y-65823958D01*
X97132965Y-65823956D01*
X97139857Y-65813641D01*
X97155500Y-65735000D01*
X97155500Y-65465000D01*
X97142872Y-65401516D01*
X97142278Y-65398528D01*
X97142277Y-65398526D01*
X97139857Y-65386359D01*
X97132965Y-65376044D01*
X97132964Y-65376042D01*
X97102203Y-65330006D01*
X97095310Y-65319690D01*
X97084994Y-65312797D01*
X97084993Y-65312796D01*
X97071497Y-65303778D01*
X97025970Y-65249301D01*
X97015500Y-65199014D01*
X97015500Y-64249247D01*
X97025091Y-64201029D01*
X97081708Y-64064344D01*
X97084868Y-64056715D01*
X97105500Y-63900000D01*
X97084868Y-63743285D01*
X97024378Y-63597250D01*
X96928153Y-63471847D01*
X96802750Y-63375622D01*
X96656715Y-63315132D01*
X96500000Y-63294500D01*
X96343285Y-63315132D01*
X96197250Y-63375622D01*
X96071847Y-63471847D01*
X95975622Y-63597250D01*
X95915132Y-63743285D01*
X95894500Y-63900000D01*
X95915132Y-64056715D01*
X95975622Y-64202750D01*
X96071847Y-64328153D01*
X96197250Y-64424378D01*
X96286718Y-64461437D01*
X96341999Y-64505985D01*
X96364500Y-64577846D01*
X96364500Y-65199014D01*
X96344498Y-65267135D01*
X96308503Y-65303778D01*
X96295007Y-65312796D01*
X96295006Y-65312797D01*
X96284690Y-65319690D01*
X96277797Y-65330006D01*
X96247036Y-65376042D01*
X96247035Y-65376044D01*
X96240143Y-65386359D01*
X96237723Y-65398526D01*
X96237722Y-65398528D01*
X96237128Y-65401516D01*
X96224500Y-65465000D01*
X96224500Y-65517034D01*
X96204498Y-65585155D01*
X96150842Y-65631648D01*
X96080568Y-65641752D01*
X96055877Y-65634978D01*
X96048641Y-65630143D01*
X95970000Y-65614500D01*
X95837016Y-65614500D01*
X95768895Y-65594498D01*
X95747921Y-65577595D01*
X95215829Y-65045502D01*
X94653935Y-64483608D01*
X94646508Y-64475504D01*
X94629527Y-64455267D01*
X94629528Y-64455267D01*
X94622441Y-64446822D01*
X94612891Y-64441308D01*
X94589816Y-64427985D01*
X94580548Y-64422081D01*
X94558707Y-64406789D01*
X94558706Y-64406789D01*
X94549675Y-64400465D01*
X94539028Y-64397613D01*
X94535872Y-64396141D01*
X94532586Y-64394945D01*
X94523038Y-64389432D01*
X94512181Y-64387518D01*
X94512179Y-64387517D01*
X94494634Y-64384424D01*
X94485932Y-64382889D01*
X94475200Y-64380510D01*
X94449456Y-64373611D01*
X94449451Y-64373611D01*
X94438805Y-64370758D01*
X94427825Y-64371719D01*
X94427817Y-64371718D01*
X94401510Y-64374020D01*
X94390528Y-64374500D01*
X93992440Y-64374500D01*
X93924319Y-64354498D01*
X93888600Y-64319867D01*
X93833505Y-64239703D01*
X93833504Y-64239701D01*
X93829203Y-64233444D01*
X93702638Y-64120679D01*
X93552829Y-64041359D01*
X93388423Y-64000063D01*
X93380825Y-64000023D01*
X93380823Y-64000023D01*
X93307792Y-63999641D01*
X93218912Y-63999176D01*
X93211533Y-64000948D01*
X93211529Y-64000948D01*
X93061461Y-64036976D01*
X93061457Y-64036977D01*
X93054082Y-64038748D01*
X92903450Y-64116495D01*
X92775711Y-64227928D01*
X92760728Y-64249247D01*
X92705272Y-64328153D01*
X92678240Y-64366615D01*
X92616665Y-64524549D01*
X92594539Y-64692612D01*
X92613140Y-64861102D01*
X92671395Y-65020290D01*
X92765940Y-65160988D01*
X92891317Y-65275073D01*
X93040288Y-65355957D01*
X93204253Y-65398973D01*
X93292481Y-65400359D01*
X93366147Y-65401516D01*
X93366150Y-65401516D01*
X93373745Y-65401635D01*
X93440443Y-65386359D01*
X93531577Y-65365487D01*
X93531581Y-65365486D01*
X93538980Y-65363791D01*
X93690418Y-65287626D01*
X93819316Y-65177536D01*
X93823745Y-65171373D01*
X93823750Y-65171367D01*
X93890860Y-65077974D01*
X93946854Y-65034326D01*
X93993182Y-65025500D01*
X94222982Y-65025500D01*
X94291103Y-65045502D01*
X94312077Y-65062404D01*
X95207595Y-65957921D01*
X95241620Y-66020234D01*
X95244500Y-66047017D01*
X95244500Y-66180000D01*
X95245707Y-66186067D01*
X95256820Y-66241933D01*
X95260143Y-66258641D01*
X95267035Y-66268956D01*
X95267036Y-66268958D01*
X95297797Y-66314994D01*
X95304690Y-66325310D01*
X95315006Y-66332203D01*
X95361042Y-66362964D01*
X95361044Y-66362965D01*
X95371359Y-66369857D01*
X95383526Y-66372277D01*
X95383528Y-66372278D01*
X95425169Y-66380561D01*
X95450000Y-66385500D01*
X95970000Y-66385500D01*
X96048641Y-66369857D01*
X96054212Y-66366134D01*
X96120872Y-66358968D01*
X96184359Y-66390748D01*
X96220586Y-66451806D01*
X96224500Y-66482966D01*
X96224500Y-66535000D01*
X96240143Y-66613641D01*
X96247035Y-66623956D01*
X96247036Y-66623958D01*
X96253841Y-66634142D01*
X96284690Y-66680310D01*
X96295006Y-66687203D01*
X96341042Y-66717964D01*
X96341044Y-66717965D01*
X96351359Y-66724857D01*
X96363526Y-66727277D01*
X96363528Y-66727278D01*
X96405169Y-66735561D01*
X96430000Y-66740500D01*
X96950000Y-66740500D01*
X97013237Y-66727921D01*
X97037819Y-66725500D01*
X98789907Y-66725500D01*
X98844646Y-66740167D01*
X98844750Y-66739882D01*
X98955873Y-66780327D01*
X98957850Y-66780500D01*
X99354982Y-66780500D01*
X99423103Y-66800502D01*
X99469596Y-66854158D01*
X99479700Y-66924432D01*
X99450206Y-66989012D01*
X99444077Y-66995595D01*
X99102077Y-67337595D01*
X99039765Y-67371621D01*
X99012982Y-67374500D01*
X97219472Y-67374500D01*
X97208490Y-67374021D01*
X97171194Y-67370758D01*
X97160547Y-67373611D01*
X97160545Y-67373611D01*
X97141843Y-67378622D01*
X97134800Y-67380510D01*
X97124076Y-67382887D01*
X97113766Y-67384705D01*
X97097815Y-67387518D01*
X97097814Y-67387518D01*
X97086962Y-67389432D01*
X97077418Y-67394942D01*
X97074141Y-67396135D01*
X97070970Y-67397613D01*
X97060325Y-67400466D01*
X97051299Y-67406786D01*
X97051293Y-67406789D01*
X97029460Y-67422077D01*
X97020194Y-67427981D01*
X96987559Y-67446822D01*
X96980472Y-67455268D01*
X96963492Y-67475504D01*
X96956065Y-67483608D01*
X96525913Y-67913760D01*
X96517809Y-67921187D01*
X96489127Y-67945254D01*
X96483614Y-67954803D01*
X96483613Y-67954804D01*
X96470290Y-67977879D01*
X96464386Y-67987147D01*
X96449094Y-68008988D01*
X96442770Y-68018020D01*
X96439918Y-68028667D01*
X96438446Y-68031823D01*
X96437250Y-68035109D01*
X96431737Y-68044657D01*
X96429823Y-68055514D01*
X96429822Y-68055516D01*
X96427805Y-68066959D01*
X96425213Y-68081660D01*
X96425195Y-68081760D01*
X96422815Y-68092495D01*
X96415916Y-68118239D01*
X96415916Y-68118244D01*
X96413063Y-68128890D01*
X96414024Y-68139870D01*
X96414023Y-68139878D01*
X96416325Y-68166185D01*
X96416805Y-68177167D01*
X96416805Y-68368500D01*
X96396803Y-68436621D01*
X96343147Y-68483114D01*
X96290805Y-68494500D01*
X96217305Y-68494500D01*
X96192474Y-68499439D01*
X96150833Y-68507722D01*
X96150831Y-68507723D01*
X96138664Y-68510143D01*
X96128349Y-68517035D01*
X96128347Y-68517036D01*
X96103187Y-68533848D01*
X96071995Y-68554690D01*
X96065102Y-68565006D01*
X96034341Y-68611042D01*
X96034340Y-68611044D01*
X96027448Y-68621359D01*
X96011805Y-68700000D01*
X96011805Y-69129432D01*
X95991803Y-69197553D01*
X95938147Y-69244046D01*
X95918425Y-69251136D01*
X95902090Y-69255513D01*
X95891374Y-69257889D01*
X95865119Y-69262518D01*
X95865116Y-69262519D01*
X95854267Y-69264432D01*
X95844724Y-69269941D01*
X95841439Y-69271137D01*
X95838275Y-69272612D01*
X95827630Y-69275465D01*
X95818604Y-69281785D01*
X95796764Y-69297077D01*
X95787497Y-69302980D01*
X95764412Y-69316309D01*
X95764411Y-69316310D01*
X95754864Y-69321822D01*
X95747779Y-69330266D01*
X95730798Y-69350503D01*
X95723371Y-69358607D01*
X95640595Y-69441383D01*
X95578283Y-69475409D01*
X95507468Y-69470344D01*
X95450632Y-69427797D01*
X95425821Y-69361277D01*
X95425500Y-69352288D01*
X95425500Y-68162367D01*
X95425979Y-68151385D01*
X95428281Y-68125071D01*
X95429242Y-68114089D01*
X95426389Y-68103443D01*
X95426389Y-68103438D01*
X95419490Y-68077694D01*
X95417110Y-68066959D01*
X95412483Y-68040715D01*
X95412482Y-68040713D01*
X95410568Y-68029856D01*
X95405055Y-68020308D01*
X95403859Y-68017022D01*
X95402387Y-68013866D01*
X95399535Y-68003219D01*
X95377923Y-67972353D01*
X95372020Y-67963086D01*
X95358691Y-67940001D01*
X95358690Y-67940000D01*
X95353178Y-67930453D01*
X95324490Y-67906381D01*
X95316386Y-67898954D01*
X94301041Y-66883608D01*
X94293614Y-66875504D01*
X94276633Y-66855267D01*
X94276634Y-66855267D01*
X94269547Y-66846822D01*
X94259997Y-66841308D01*
X94236922Y-66827985D01*
X94227654Y-66822081D01*
X94205813Y-66806789D01*
X94205812Y-66806789D01*
X94196781Y-66800465D01*
X94186134Y-66797613D01*
X94182978Y-66796141D01*
X94179692Y-66794945D01*
X94170144Y-66789432D01*
X94159287Y-66787518D01*
X94159285Y-66787517D01*
X94141740Y-66784424D01*
X94133038Y-66782889D01*
X94122306Y-66780510D01*
X94096562Y-66773611D01*
X94096557Y-66773611D01*
X94085911Y-66770758D01*
X94074927Y-66771719D01*
X94053147Y-66773624D01*
X93983543Y-66759634D01*
X93938327Y-66719470D01*
X93928595Y-66705309D01*
X93879203Y-66633444D01*
X93858783Y-66615250D01*
X93775521Y-66541067D01*
X93752638Y-66520679D01*
X93602829Y-66441359D01*
X93438423Y-66400063D01*
X93430825Y-66400023D01*
X93430823Y-66400023D01*
X93357792Y-66399641D01*
X93268912Y-66399176D01*
X93261533Y-66400948D01*
X93261529Y-66400948D01*
X93111461Y-66436976D01*
X93111457Y-66436977D01*
X93104082Y-66438748D01*
X93097337Y-66442229D01*
X93097338Y-66442229D01*
X92977413Y-66504127D01*
X92953450Y-66516495D01*
X92947728Y-66521487D01*
X92947726Y-66521488D01*
X92932237Y-66535000D01*
X92825711Y-66627928D01*
X92793726Y-66673438D01*
X92744379Y-66743652D01*
X92728240Y-66766615D01*
X92666665Y-66924549D01*
X92664860Y-66938263D01*
X92646618Y-67076822D01*
X92644539Y-67092612D01*
X92663140Y-67261102D01*
X92688353Y-67330000D01*
X92711442Y-67393091D01*
X92721395Y-67420290D01*
X92815940Y-67560988D01*
X92941317Y-67675073D01*
X93090288Y-67755957D01*
X93254253Y-67798973D01*
X93342481Y-67800359D01*
X93416147Y-67801516D01*
X93416150Y-67801516D01*
X93423745Y-67801635D01*
X93482841Y-67788100D01*
X93581577Y-67765487D01*
X93581581Y-67765486D01*
X93588980Y-67763791D01*
X93740418Y-67687626D01*
X93869316Y-67577536D01*
X93873747Y-67571369D01*
X93877938Y-67566812D01*
X93938770Y-67530206D01*
X94009736Y-67532301D01*
X94059782Y-67563002D01*
X94737595Y-68240815D01*
X94771621Y-68303127D01*
X94774500Y-68329910D01*
X94774500Y-69018500D01*
X94754498Y-69086621D01*
X94700842Y-69133114D01*
X94648500Y-69144500D01*
X93617305Y-69144500D01*
X93610579Y-69145838D01*
X93550833Y-69157722D01*
X93550831Y-69157723D01*
X93538664Y-69160143D01*
X93528349Y-69167035D01*
X93528347Y-69167036D01*
X93482676Y-69197553D01*
X93471995Y-69204690D01*
X93465102Y-69215006D01*
X93434341Y-69261042D01*
X93434340Y-69261044D01*
X93427448Y-69271359D01*
X93411805Y-69350000D01*
X93411805Y-69800000D01*
X93413012Y-69806067D01*
X93426807Y-69875418D01*
X93426807Y-69924581D01*
X93411805Y-70000000D01*
X93411805Y-70450000D01*
X93419071Y-70486528D01*
X93426807Y-70525418D01*
X93426807Y-70574581D01*
X93411805Y-70650000D01*
X93411805Y-71100000D01*
X93427448Y-71178641D01*
X93434340Y-71188956D01*
X93434341Y-71188958D01*
X93453791Y-71218066D01*
X93471995Y-71245310D01*
X93482311Y-71252203D01*
X93528347Y-71282964D01*
X93528349Y-71282965D01*
X93538664Y-71289857D01*
X93550831Y-71292277D01*
X93550833Y-71292278D01*
X93585422Y-71299158D01*
X93617305Y-71305500D01*
X93690805Y-71305500D01*
X93758926Y-71325502D01*
X93805419Y-71379158D01*
X93816805Y-71431500D01*
X93816805Y-72722833D01*
X93816325Y-72733815D01*
X93814023Y-72760122D01*
X93814024Y-72760130D01*
X93813063Y-72771110D01*
X93815916Y-72781758D01*
X93816877Y-72792739D01*
X93815588Y-72792852D01*
X93815587Y-72842186D01*
X93815132Y-72843285D01*
X93794500Y-73000000D01*
X93815132Y-73156715D01*
X93875622Y-73302750D01*
X93971847Y-73428153D01*
X94097250Y-73524378D01*
X94243285Y-73584868D01*
X94400000Y-73605500D01*
X94408188Y-73604422D01*
X94411470Y-73603990D01*
X94556715Y-73584868D01*
X94702750Y-73524378D01*
X94828153Y-73428153D01*
X94869095Y-73374796D01*
X94926433Y-73332929D01*
X94969058Y-73325500D01*
X95605287Y-73325500D01*
X95673408Y-73345502D01*
X95710052Y-73381498D01*
X95752690Y-73445310D01*
X95763006Y-73452203D01*
X95809042Y-73482964D01*
X95809044Y-73482965D01*
X95819359Y-73489857D01*
X95831526Y-73492277D01*
X95831528Y-73492278D01*
X95873169Y-73500561D01*
X95898000Y-73505500D01*
X96438000Y-73505500D01*
X96462831Y-73500561D01*
X96504472Y-73492278D01*
X96504474Y-73492277D01*
X96516641Y-73489857D01*
X96529999Y-73480931D01*
X96537639Y-73478539D01*
X96538424Y-73478214D01*
X96538453Y-73478284D01*
X96597750Y-73459717D01*
X96661486Y-73478431D01*
X96661576Y-73478214D01*
X96663596Y-73479051D01*
X96670001Y-73480931D01*
X96683359Y-73489857D01*
X96695526Y-73492277D01*
X96695528Y-73492278D01*
X96737169Y-73500561D01*
X96762000Y-73505500D01*
X97106066Y-73505500D01*
X97174187Y-73525502D01*
X97220680Y-73579158D01*
X97230784Y-73649432D01*
X97201290Y-73714012D01*
X97149677Y-73749712D01*
X96981019Y-73811933D01*
X96976058Y-73814885D01*
X96976057Y-73814885D01*
X96796393Y-73921774D01*
X96796390Y-73921776D01*
X96791425Y-73924730D01*
X96625561Y-74070189D01*
X96488983Y-74243438D01*
X96486294Y-74248549D01*
X96486292Y-74248552D01*
X96436193Y-74343775D01*
X96386263Y-74438675D01*
X96320843Y-74649362D01*
X96294913Y-74868444D01*
X96309342Y-75088582D01*
X96363646Y-75302404D01*
X96456006Y-75502750D01*
X96583331Y-75682910D01*
X96650126Y-75747979D01*
X96674396Y-75771621D01*
X96741354Y-75836849D01*
X96746150Y-75840054D01*
X96746153Y-75840056D01*
X96849786Y-75909301D01*
X96924785Y-75959414D01*
X96930088Y-75961692D01*
X96930091Y-75961694D01*
X97096470Y-76033176D01*
X97127480Y-76046499D01*
X97206501Y-76064380D01*
X97337014Y-76093912D01*
X97337019Y-76093913D01*
X97342651Y-76095187D01*
X97348422Y-76095414D01*
X97348424Y-76095414D01*
X97416147Y-76098075D01*
X97563091Y-76103848D01*
X97672254Y-76088020D01*
X97775704Y-76073021D01*
X97775709Y-76073020D01*
X97781418Y-76072192D01*
X97786882Y-76070337D01*
X97786887Y-76070336D01*
X97984853Y-76003135D01*
X97990321Y-76001279D01*
X98182803Y-75893484D01*
X98352417Y-75752417D01*
X98493484Y-75582803D01*
X98601279Y-75390321D01*
X98638549Y-75280528D01*
X98670336Y-75186887D01*
X98670337Y-75186882D01*
X98672192Y-75181418D01*
X98673020Y-75175709D01*
X98673021Y-75175704D01*
X98694780Y-75025629D01*
X98703848Y-74963091D01*
X98705500Y-74900000D01*
X98688585Y-74715914D01*
X98685843Y-74686069D01*
X98685842Y-74686066D01*
X98685314Y-74680315D01*
X98625431Y-74467987D01*
X98613698Y-74444193D01*
X98530413Y-74275309D01*
X98527858Y-74270128D01*
X98511747Y-74248552D01*
X98399314Y-74097987D01*
X98399313Y-74097986D01*
X98395861Y-74093363D01*
X98379022Y-74077797D01*
X98238103Y-73947533D01*
X98238101Y-73947531D01*
X98233862Y-73943613D01*
X98094215Y-73855502D01*
X98052166Y-73828971D01*
X98047286Y-73825892D01*
X97842380Y-73744143D01*
X97836720Y-73743017D01*
X97836716Y-73743016D01*
X97631676Y-73702231D01*
X97631673Y-73702231D01*
X97626009Y-73701104D01*
X97620234Y-73701028D01*
X97620230Y-73701028D01*
X97510884Y-73699597D01*
X97481029Y-73699206D01*
X97413176Y-73678314D01*
X97367389Y-73624054D01*
X97358206Y-73553654D01*
X97388542Y-73489465D01*
X97412676Y-73468452D01*
X97436994Y-73452203D01*
X97447310Y-73445310D01*
X97481373Y-73394332D01*
X97484964Y-73388958D01*
X97484965Y-73388956D01*
X97491857Y-73378641D01*
X97495713Y-73359260D01*
X97506293Y-73306067D01*
X97507500Y-73300000D01*
X97507500Y-72700000D01*
X97498449Y-72654498D01*
X97494278Y-72633528D01*
X97494277Y-72633526D01*
X97491857Y-72621359D01*
X97484965Y-72611044D01*
X97484964Y-72611042D01*
X97454203Y-72565006D01*
X97447310Y-72554690D01*
X97427751Y-72541621D01*
X97390962Y-72517039D01*
X97390961Y-72517039D01*
X97380641Y-72510143D01*
X97368467Y-72507721D01*
X97365562Y-72506518D01*
X97310547Y-72462350D01*
X97309899Y-72461424D01*
X97304015Y-72452184D01*
X97285179Y-72419560D01*
X97287328Y-72418319D01*
X97265066Y-72367451D01*
X97276283Y-72297346D01*
X97323622Y-72244435D01*
X97390052Y-72225500D01*
X98188930Y-72225500D01*
X98257051Y-72245502D01*
X98285454Y-72270512D01*
X98288648Y-72274319D01*
X98294162Y-72283869D01*
X98312263Y-72299057D01*
X98329492Y-72313515D01*
X98368818Y-72372625D01*
X98374500Y-72410036D01*
X98374500Y-72554493D01*
X98354498Y-72622614D01*
X98345022Y-72635484D01*
X98270118Y-72724750D01*
X98229673Y-72835873D01*
X98229500Y-72837850D01*
X98229500Y-73293356D01*
X98245035Y-73381458D01*
X98304162Y-73483869D01*
X98312603Y-73490952D01*
X98312604Y-73490953D01*
X98346447Y-73519351D01*
X98394750Y-73559882D01*
X98505873Y-73600327D01*
X98507850Y-73600500D01*
X98863356Y-73600500D01*
X98951458Y-73584965D01*
X99019714Y-73545558D01*
X99044324Y-73531349D01*
X99044325Y-73531348D01*
X99053869Y-73525838D01*
X99072131Y-73504075D01*
X99122795Y-73443696D01*
X99129882Y-73435250D01*
X99170327Y-73324127D01*
X99170500Y-73322150D01*
X99170500Y-72866644D01*
X99154965Y-72778542D01*
X99095838Y-72676131D01*
X99087396Y-72669047D01*
X99087395Y-72669046D01*
X99070507Y-72654875D01*
X99031182Y-72595765D01*
X99025500Y-72558355D01*
X99025500Y-72393590D01*
X99045502Y-72325469D01*
X99054979Y-72312599D01*
X99102677Y-72255755D01*
X99161786Y-72216428D01*
X99232774Y-72215302D01*
X99293102Y-72252733D01*
X99308315Y-72273742D01*
X99314162Y-72283869D01*
X99322603Y-72290952D01*
X99322604Y-72290953D01*
X99394500Y-72351281D01*
X99404750Y-72359882D01*
X99515873Y-72400327D01*
X99517850Y-72400500D01*
X99873356Y-72400500D01*
X99961458Y-72384965D01*
X100063869Y-72325838D01*
X100071593Y-72316633D01*
X100125377Y-72252537D01*
X100184487Y-72213211D01*
X100232879Y-72208008D01*
X100235192Y-72208210D01*
X100246986Y-72209242D01*
X100257632Y-72206389D01*
X100257637Y-72206389D01*
X100283381Y-72199490D01*
X100294113Y-72197111D01*
X100305403Y-72195120D01*
X100320360Y-72192483D01*
X100320362Y-72192482D01*
X100331219Y-72190568D01*
X100340767Y-72185055D01*
X100344053Y-72183859D01*
X100347209Y-72182387D01*
X100357856Y-72179535D01*
X100368302Y-72172221D01*
X100388729Y-72157919D01*
X100397997Y-72152015D01*
X100421072Y-72138692D01*
X100421073Y-72138691D01*
X100430622Y-72133178D01*
X100454689Y-72104496D01*
X100462116Y-72096392D01*
X101772814Y-70785694D01*
X101835126Y-70751668D01*
X101861909Y-70748789D01*
X103452999Y-70748789D01*
X103521120Y-70768791D01*
X103567613Y-70822447D01*
X103578999Y-70874789D01*
X103578999Y-71408200D01*
X103583634Y-71431500D01*
X103591782Y-71472462D01*
X103594642Y-71486841D01*
X103601534Y-71497156D01*
X103601535Y-71497158D01*
X103632296Y-71543194D01*
X103639189Y-71553510D01*
X103649505Y-71560403D01*
X103695541Y-71591164D01*
X103695543Y-71591165D01*
X103705858Y-71598057D01*
X103718025Y-71600477D01*
X103718027Y-71600478D01*
X103759668Y-71608761D01*
X103784499Y-71613700D01*
X103988517Y-71613700D01*
X104056638Y-71633702D01*
X104103131Y-71687358D01*
X104113439Y-71756146D01*
X104094500Y-71900000D01*
X104115132Y-72056715D01*
X104175622Y-72202750D01*
X104180650Y-72209303D01*
X104180652Y-72209306D01*
X104196547Y-72230021D01*
X104222148Y-72296241D01*
X104220164Y-72331307D01*
X104216949Y-72347471D01*
X104206500Y-72400000D01*
X104206500Y-73000000D01*
X104207707Y-73006067D01*
X104219080Y-73063241D01*
X104222143Y-73078641D01*
X104229035Y-73088956D01*
X104229036Y-73088958D01*
X104249997Y-73120327D01*
X104266690Y-73145310D01*
X104277006Y-73152203D01*
X104323042Y-73182964D01*
X104323044Y-73182965D01*
X104333359Y-73189857D01*
X104345526Y-73192277D01*
X104345528Y-73192278D01*
X104387169Y-73200561D01*
X104412000Y-73205500D01*
X105002000Y-73205500D01*
X105026831Y-73200561D01*
X105068472Y-73192278D01*
X105068474Y-73192277D01*
X105080641Y-73189857D01*
X105090956Y-73182965D01*
X105090958Y-73182964D01*
X105136994Y-73152203D01*
X105147310Y-73145310D01*
X105164003Y-73120327D01*
X105184964Y-73088958D01*
X105184965Y-73088956D01*
X105191857Y-73078641D01*
X105194921Y-73063241D01*
X105206293Y-73006067D01*
X105207500Y-73000000D01*
X105207500Y-72400000D01*
X105191857Y-72321359D01*
X105195273Y-72320679D01*
X105189902Y-72270680D01*
X105213934Y-72216362D01*
X105219348Y-72209306D01*
X105219350Y-72209303D01*
X105224378Y-72202750D01*
X105284868Y-72056715D01*
X105305500Y-71900000D01*
X105284868Y-71743285D01*
X105224378Y-71597250D01*
X105128153Y-71471847D01*
X105002750Y-71375622D01*
X104856715Y-71315132D01*
X104700000Y-71294500D01*
X104691812Y-71295578D01*
X104551471Y-71314054D01*
X104551469Y-71314055D01*
X104543285Y-71315132D01*
X104535660Y-71318290D01*
X104529608Y-71319912D01*
X104458631Y-71318221D01*
X104399836Y-71278426D01*
X104371890Y-71213161D01*
X104370999Y-71198205D01*
X104370999Y-70747800D01*
X104355356Y-70669159D01*
X104348464Y-70658844D01*
X104348463Y-70658842D01*
X104310809Y-70602490D01*
X104314972Y-70599708D01*
X104291240Y-70554121D01*
X104289174Y-70542404D01*
X104285567Y-70521949D01*
X104280057Y-70512404D01*
X104278861Y-70509119D01*
X104277652Y-70506526D01*
X104277424Y-70505024D01*
X104276987Y-70503970D01*
X104276484Y-70502589D01*
X104276340Y-70502050D01*
X104276542Y-70501977D01*
X104275068Y-70497302D01*
X104274541Y-70495337D01*
X104275896Y-70494974D01*
X104266983Y-70436336D01*
X104295957Y-70371520D01*
X104355373Y-70332658D01*
X104393116Y-70327271D01*
X104925305Y-70332658D01*
X105887335Y-70342396D01*
X105890795Y-70342431D01*
X105917512Y-70339754D01*
X105931043Y-70338398D01*
X105931048Y-70338397D01*
X105934483Y-70338053D01*
X105988260Y-70326599D01*
X105989089Y-70326398D01*
X105989123Y-70326390D01*
X105991540Y-70325803D01*
X105991543Y-70325802D01*
X105999286Y-70323922D01*
X106023537Y-70310956D01*
X106071540Y-70285290D01*
X106071541Y-70285289D01*
X106077779Y-70281954D01*
X106131370Y-70235386D01*
X106148823Y-70218238D01*
X106192165Y-70140495D01*
X106212071Y-70072346D01*
X106220093Y-70015988D01*
X106220080Y-70006187D01*
X106217014Y-67825882D01*
X106236920Y-67757733D01*
X106290511Y-67711165D01*
X106360770Y-67700962D01*
X106425392Y-67730365D01*
X106457439Y-67772953D01*
X106531106Y-67932750D01*
X106658431Y-68112910D01*
X106703547Y-68156860D01*
X106804789Y-68255485D01*
X106816454Y-68266849D01*
X106821250Y-68270054D01*
X106821253Y-68270056D01*
X106961210Y-68363572D01*
X106999885Y-68389414D01*
X107005188Y-68391692D01*
X107005191Y-68391694D01*
X107173338Y-68463936D01*
X107228031Y-68509205D01*
X107249600Y-68579704D01*
X107249600Y-72418500D01*
X107229598Y-72486621D01*
X107175942Y-72533114D01*
X107123600Y-72544500D01*
X106500000Y-72544500D01*
X106475169Y-72549439D01*
X106433528Y-72557722D01*
X106433526Y-72557723D01*
X106421359Y-72560143D01*
X106411044Y-72567035D01*
X106411042Y-72567036D01*
X106368047Y-72595765D01*
X106354690Y-72604690D01*
X106347797Y-72615006D01*
X106317036Y-72661042D01*
X106317035Y-72661044D01*
X106310143Y-72671359D01*
X106307723Y-72683526D01*
X106307722Y-72683528D01*
X106304446Y-72700000D01*
X106294500Y-72750000D01*
X106294500Y-74850000D01*
X106295707Y-74856067D01*
X106305691Y-74906258D01*
X106310143Y-74928641D01*
X106317035Y-74938956D01*
X106317036Y-74938958D01*
X106338122Y-74970514D01*
X106354690Y-74995310D01*
X106365006Y-75002203D01*
X106411042Y-75032964D01*
X106411044Y-75032965D01*
X106421359Y-75039857D01*
X106433526Y-75042277D01*
X106433528Y-75042278D01*
X106465850Y-75048707D01*
X106500000Y-75055500D01*
X107198500Y-75055500D01*
X107266621Y-75075502D01*
X107313114Y-75129158D01*
X107324500Y-75181500D01*
X107324500Y-75280528D01*
X107324020Y-75291510D01*
X107321718Y-75317817D01*
X107321719Y-75317825D01*
X107320758Y-75328805D01*
X107323611Y-75339451D01*
X107323611Y-75339456D01*
X107330510Y-75365200D01*
X107332889Y-75375932D01*
X107339432Y-75413038D01*
X107344945Y-75422586D01*
X107346141Y-75425872D01*
X107347613Y-75429028D01*
X107350465Y-75439675D01*
X107356789Y-75448706D01*
X107356789Y-75448707D01*
X107372081Y-75470548D01*
X107377985Y-75479816D01*
X107391227Y-75502750D01*
X107396822Y-75512441D01*
X107405267Y-75519527D01*
X107425497Y-75536502D01*
X107433601Y-75543928D01*
X108174578Y-76284904D01*
X108208603Y-76347217D01*
X108203539Y-76418032D01*
X108160992Y-76474868D01*
X108094472Y-76499679D01*
X108085483Y-76500000D01*
X91426000Y-76500000D01*
X91357879Y-76479998D01*
X91311386Y-76426342D01*
X91300000Y-76374000D01*
X91300000Y-60977952D01*
X91794615Y-60977952D01*
X91811102Y-61263889D01*
X91811927Y-61268096D01*
X91811928Y-61268101D01*
X91827114Y-61345502D01*
X91866243Y-61544943D01*
X91867630Y-61548994D01*
X91867631Y-61548998D01*
X91957628Y-61811859D01*
X91957632Y-61811868D01*
X91959017Y-61815914D01*
X92087708Y-62071787D01*
X92151908Y-62165199D01*
X92227403Y-62275045D01*
X92249933Y-62307827D01*
X92442693Y-62519666D01*
X92445982Y-62522416D01*
X92659126Y-62700633D01*
X92659131Y-62700637D01*
X92662418Y-62703385D01*
X92736968Y-62750150D01*
X92901404Y-62853301D01*
X92901408Y-62853303D01*
X92905044Y-62855584D01*
X92908954Y-62857349D01*
X92908955Y-62857350D01*
X93162170Y-62971681D01*
X93162174Y-62971683D01*
X93166082Y-62973447D01*
X93440699Y-63054793D01*
X93444933Y-63055441D01*
X93444938Y-63055442D01*
X93693635Y-63093498D01*
X93723816Y-63098116D01*
X93869700Y-63100407D01*
X94005902Y-63102547D01*
X94005908Y-63102547D01*
X94010193Y-63102614D01*
X94294531Y-63068206D01*
X94571569Y-62995526D01*
X94836179Y-62885921D01*
X95083467Y-62741418D01*
X95111386Y-62719527D01*
X95305482Y-62567335D01*
X95308854Y-62564691D01*
X95508173Y-62359011D01*
X95677732Y-62128183D01*
X95814397Y-61876479D01*
X95915636Y-61608556D01*
X95979578Y-61329373D01*
X96005038Y-61044094D01*
X96005500Y-61000000D01*
X95986020Y-60714251D01*
X95981500Y-60692422D01*
X95928808Y-60437986D01*
X95927939Y-60433789D01*
X95832332Y-60163805D01*
X95700969Y-59909294D01*
X95693184Y-59898216D01*
X95585506Y-59745006D01*
X95536281Y-59674966D01*
X95341314Y-59465157D01*
X95337998Y-59462443D01*
X95337995Y-59462440D01*
X95122995Y-59286463D01*
X95122988Y-59286458D01*
X95119677Y-59283748D01*
X94875470Y-59134098D01*
X94871553Y-59132379D01*
X94871550Y-59132377D01*
X94755686Y-59081517D01*
X94613213Y-59018976D01*
X94609085Y-59017800D01*
X94609082Y-59017799D01*
X94524598Y-58993733D01*
X94337758Y-58940510D01*
X94333516Y-58939906D01*
X94333510Y-58939905D01*
X94124946Y-58910222D01*
X94054203Y-58900154D01*
X93903813Y-58899367D01*
X93772081Y-58898677D01*
X93772075Y-58898677D01*
X93767795Y-58898655D01*
X93763551Y-58899214D01*
X93763547Y-58899214D01*
X93638910Y-58915623D01*
X93483832Y-58936039D01*
X93479692Y-58937172D01*
X93479690Y-58937172D01*
X93211716Y-59010482D01*
X93207571Y-59011616D01*
X93143420Y-59038979D01*
X92948065Y-59122304D01*
X92948058Y-59122308D01*
X92944123Y-59123986D01*
X92940442Y-59126189D01*
X92702045Y-59268866D01*
X92702041Y-59268869D01*
X92698363Y-59271070D01*
X92695020Y-59273748D01*
X92695016Y-59273751D01*
X92685333Y-59281509D01*
X92474838Y-59450148D01*
X92471894Y-59453250D01*
X92471890Y-59453254D01*
X92457612Y-59468300D01*
X92277684Y-59657904D01*
X92110551Y-59890495D01*
X91976530Y-60143616D01*
X91878102Y-60412584D01*
X91817087Y-60692422D01*
X91794615Y-60977952D01*
X91300000Y-60977952D01*
X91300000Y-58526000D01*
X91320002Y-58457879D01*
X91373658Y-58411386D01*
X91426000Y-58400000D01*
X115374000Y-58400000D01*
X115442121Y-58420002D01*
G37*
%TD.AperFunction*%
%TA.AperFunction,Conductor*%
G36*
X98237242Y-69270502D02*
G01*
X98283735Y-69324158D01*
X98293839Y-69394432D01*
X98265642Y-69457491D01*
X98241691Y-69486035D01*
X98205803Y-69528805D01*
X98192423Y-69544750D01*
X98151978Y-69655873D01*
X98151805Y-69657850D01*
X98151805Y-70113356D01*
X98167340Y-70201458D01*
X98226467Y-70303869D01*
X98234909Y-70310953D01*
X98234910Y-70310954D01*
X98251798Y-70325125D01*
X98291123Y-70384235D01*
X98296805Y-70421645D01*
X98296805Y-70448500D01*
X98276803Y-70516621D01*
X98223147Y-70563114D01*
X98170805Y-70574500D01*
X97598805Y-70574500D01*
X97530684Y-70554498D01*
X97484191Y-70500842D01*
X97472805Y-70448500D01*
X97472805Y-70000000D01*
X97457803Y-69924581D01*
X97457803Y-69875418D01*
X97471598Y-69806067D01*
X97472805Y-69800000D01*
X97472805Y-69376500D01*
X97492807Y-69308379D01*
X97546463Y-69261886D01*
X97598805Y-69250500D01*
X98169121Y-69250500D01*
X98237242Y-69270502D01*
G37*
%TD.AperFunction*%
%TA.AperFunction,Conductor*%
G36*
X100792532Y-67471961D02*
G01*
X100849368Y-67514508D01*
X100874179Y-67581028D01*
X100874500Y-67590017D01*
X100874500Y-69581005D01*
X100854498Y-69649126D01*
X100837595Y-69670101D01*
X100327900Y-70179795D01*
X100265588Y-70213820D01*
X100194772Y-70208755D01*
X100137937Y-70166208D01*
X100113126Y-70099688D01*
X100112805Y-70090699D01*
X100112805Y-69686644D01*
X100097270Y-69598542D01*
X100038143Y-69496131D01*
X99970508Y-69439378D01*
X99931182Y-69380268D01*
X99925500Y-69342857D01*
X99925500Y-69253005D01*
X99945502Y-69184884D01*
X99970510Y-69156482D01*
X99976625Y-69151351D01*
X99986174Y-69145838D01*
X100062187Y-69055250D01*
X100102632Y-68944127D01*
X100102805Y-68942150D01*
X100102805Y-68486644D01*
X100087270Y-68398542D01*
X100051337Y-68336304D01*
X100033654Y-68305675D01*
X100033652Y-68305672D01*
X100028143Y-68296131D01*
X100024613Y-68293169D01*
X99997733Y-68231748D01*
X100008951Y-68161644D01*
X100033623Y-68126704D01*
X100659405Y-67500922D01*
X100721717Y-67466897D01*
X100792532Y-67471961D01*
G37*
%TD.AperFunction*%
%TA.AperFunction,Conductor*%
G36*
X99215407Y-69072734D02*
G01*
X99230620Y-69093742D01*
X99236467Y-69103869D01*
X99244913Y-69110956D01*
X99245022Y-69111086D01*
X99273486Y-69176126D01*
X99274500Y-69192077D01*
X99274500Y-69424909D01*
X99254498Y-69493030D01*
X99245022Y-69505899D01*
X99229629Y-69524244D01*
X99170520Y-69563571D01*
X99099532Y-69564698D01*
X99039204Y-69527268D01*
X99023990Y-69506258D01*
X99023654Y-69505676D01*
X99023653Y-69505675D01*
X99018143Y-69496131D01*
X98952898Y-69441383D01*
X98936001Y-69427205D01*
X98927555Y-69420118D01*
X98913775Y-69415103D01*
X98909186Y-69411724D01*
X98907650Y-69410837D01*
X98907749Y-69410666D01*
X98856605Y-69373010D01*
X98831266Y-69306689D01*
X98845806Y-69237197D01*
X98893870Y-69187583D01*
X98956629Y-69151349D01*
X98956630Y-69151348D01*
X98966174Y-69145838D01*
X98979941Y-69129432D01*
X99024982Y-69075754D01*
X99084092Y-69036428D01*
X99155079Y-69035302D01*
X99215407Y-69072734D01*
G37*
%TD.AperFunction*%
%TD*%
%TA.AperFunction,NonConductor*%
G36*
X107020328Y-66050660D02*
G01*
X107067018Y-66104144D01*
X107077382Y-66174380D01*
X107048128Y-66239069D01*
X107017025Y-66265192D01*
X106949001Y-66305662D01*
X106871493Y-66351774D01*
X106871490Y-66351776D01*
X106866525Y-66354730D01*
X106700661Y-66500189D01*
X106697086Y-66504724D01*
X106697085Y-66504725D01*
X106662834Y-66548172D01*
X106564083Y-66673438D01*
X106561394Y-66678549D01*
X106561392Y-66678552D01*
X106469001Y-66854158D01*
X106461363Y-66868675D01*
X106459651Y-66874188D01*
X106458022Y-66878121D01*
X106413474Y-66933402D01*
X106346110Y-66955822D01*
X106277319Y-66938263D01*
X106228941Y-66886301D01*
X106215614Y-66830079D01*
X106214671Y-66159347D01*
X106234577Y-66091198D01*
X106288168Y-66044630D01*
X106340203Y-66033171D01*
X106603880Y-66032197D01*
X106952133Y-66030910D01*
X107020328Y-66050660D01*
G37*
%TD.AperFunction*%
%TA.AperFunction,NonConductor*%
G36*
X109576207Y-66041213D02*
G01*
X109622897Y-66094696D01*
X109633261Y-66164933D01*
X109604007Y-66229622D01*
X109572904Y-66255745D01*
X109489001Y-66305662D01*
X109411493Y-66351774D01*
X109411490Y-66351776D01*
X109406525Y-66354730D01*
X109240661Y-66500189D01*
X109237086Y-66504724D01*
X109237085Y-66504725D01*
X109202834Y-66548172D01*
X109104083Y-66673438D01*
X109101394Y-66678549D01*
X109101392Y-66678552D01*
X109067141Y-66743652D01*
X109001363Y-66868675D01*
X108999649Y-66874196D01*
X108999647Y-66874200D01*
X108965524Y-66984092D01*
X108926221Y-67043217D01*
X108861192Y-67071707D01*
X108791083Y-67060517D01*
X108738153Y-67013200D01*
X108723923Y-66980928D01*
X108702100Y-66903548D01*
X108702098Y-66903542D01*
X108700531Y-66897987D01*
X108694769Y-66886301D01*
X108605513Y-66705309D01*
X108602958Y-66700128D01*
X108593307Y-66687203D01*
X108474414Y-66527987D01*
X108474413Y-66527986D01*
X108470961Y-66523363D01*
X108464211Y-66517123D01*
X108313203Y-66377533D01*
X108313201Y-66377531D01*
X108308962Y-66373613D01*
X108304079Y-66370532D01*
X108304075Y-66370529D01*
X108127124Y-66258881D01*
X108080185Y-66205614D01*
X108069496Y-66135427D01*
X108098451Y-66070603D01*
X108157855Y-66031723D01*
X108193893Y-66026320D01*
X109508012Y-66021463D01*
X109576207Y-66041213D01*
G37*
%TD.AperFunction*%
%TA.AperFunction,NonConductor*%
G36*
X98255862Y-68045502D02*
G01*
X98302355Y-68099158D01*
X98312459Y-68169432D01*
X98282965Y-68234012D01*
X98268731Y-68248023D01*
X98267985Y-68248649D01*
X98258436Y-68254162D01*
X98182423Y-68344750D01*
X98141978Y-68455873D01*
X98141805Y-68457850D01*
X98141805Y-68473500D01*
X98121803Y-68541621D01*
X98068147Y-68588114D01*
X98015805Y-68599500D01*
X97506192Y-68599500D01*
X97438071Y-68579498D01*
X97418830Y-68563992D01*
X97412615Y-68554690D01*
X97381423Y-68533848D01*
X97356263Y-68517036D01*
X97356261Y-68517035D01*
X97345946Y-68510143D01*
X97333779Y-68507723D01*
X97333777Y-68507722D01*
X97292136Y-68499439D01*
X97267305Y-68494500D01*
X97193805Y-68494500D01*
X97125684Y-68474498D01*
X97079191Y-68420842D01*
X97067805Y-68368500D01*
X97067805Y-68344712D01*
X97087807Y-68276591D01*
X97104710Y-68255617D01*
X97297922Y-68062405D01*
X97360234Y-68028379D01*
X97387017Y-68025500D01*
X98187741Y-68025500D01*
X98255862Y-68045502D01*
G37*
%TD.AperFunction*%
%TA.AperFunction,NonConductor*%
G36*
X98309721Y-71245502D02*
G01*
X98356214Y-71299158D01*
X98366318Y-71369432D01*
X98336979Y-71433672D01*
X98336131Y-71434162D01*
X98333565Y-71437220D01*
X98333564Y-71437221D01*
X98299016Y-71478393D01*
X98260118Y-71524750D01*
X98257972Y-71522949D01*
X98218592Y-71560495D01*
X98160859Y-71574500D01*
X96344294Y-71574500D01*
X96276173Y-71554498D01*
X96229680Y-71500842D01*
X96218294Y-71448500D01*
X96218294Y-71431500D01*
X96238296Y-71363379D01*
X96291952Y-71316886D01*
X96344294Y-71305500D01*
X97267305Y-71305500D01*
X97299188Y-71299158D01*
X97333777Y-71292278D01*
X97333779Y-71292277D01*
X97345946Y-71289857D01*
X97410483Y-71246735D01*
X97480484Y-71225500D01*
X98241600Y-71225500D01*
X98309721Y-71245502D01*
G37*
%TD.AperFunction*%
%TA.AperFunction,NonConductor*%
G36*
X95033693Y-71028935D02*
G01*
X95091279Y-71070461D01*
X95117273Y-71136528D01*
X95117774Y-71147758D01*
X95117774Y-71923802D01*
X95117294Y-71934784D01*
X95114992Y-71961091D01*
X95114993Y-71961099D01*
X95114032Y-71972079D01*
X95116885Y-71982725D01*
X95116885Y-71982730D01*
X95123784Y-72008474D01*
X95126164Y-72019209D01*
X95129184Y-72036335D01*
X95132706Y-72056312D01*
X95138219Y-72065860D01*
X95139415Y-72069146D01*
X95140887Y-72072302D01*
X95143739Y-72082949D01*
X95150063Y-72091980D01*
X95150063Y-72091981D01*
X95165355Y-72113822D01*
X95171259Y-72123090D01*
X95184199Y-72145502D01*
X95190096Y-72155715D01*
X95198539Y-72162799D01*
X95198543Y-72162804D01*
X95218778Y-72179782D01*
X95226884Y-72187210D01*
X95499079Y-72459405D01*
X95533105Y-72521717D01*
X95528040Y-72592532D01*
X95485493Y-72649368D01*
X95418973Y-72674179D01*
X95409984Y-72674500D01*
X94969058Y-72674500D01*
X94900937Y-72654498D01*
X94869095Y-72625204D01*
X94833176Y-72578393D01*
X94828153Y-72571847D01*
X94702750Y-72475622D01*
X94556715Y-72415132D01*
X94556852Y-72414802D01*
X94500569Y-72380494D01*
X94469549Y-72316633D01*
X94467805Y-72295741D01*
X94467805Y-71431500D01*
X94487807Y-71363379D01*
X94541463Y-71316886D01*
X94593805Y-71305500D01*
X94667305Y-71305500D01*
X94699188Y-71299158D01*
X94733777Y-71292278D01*
X94733779Y-71292277D01*
X94745946Y-71289857D01*
X94756261Y-71282965D01*
X94756263Y-71282964D01*
X94802299Y-71252203D01*
X94812615Y-71245310D01*
X94830819Y-71218066D01*
X94850269Y-71188958D01*
X94850270Y-71188956D01*
X94857162Y-71178641D01*
X94868195Y-71123176D01*
X94901103Y-71060266D01*
X94962798Y-71025135D01*
X95033693Y-71028935D01*
G37*
%TD.AperFunction*%
%TA.AperFunction,NonConductor*%
G36*
X119893102Y-72972734D02*
G01*
X119908315Y-72993742D01*
X119914162Y-73003869D01*
X119922607Y-73010955D01*
X119929693Y-73019400D01*
X119926449Y-73022122D01*
X119953813Y-73063241D01*
X119959500Y-73100667D01*
X119959500Y-73359260D01*
X119939498Y-73427381D01*
X119920580Y-73448052D01*
X119921144Y-73448574D01*
X119892676Y-73479371D01*
X119831748Y-73515817D01*
X119760788Y-73513537D01*
X119714622Y-73486367D01*
X119663954Y-73439530D01*
X119663952Y-73439528D01*
X119656305Y-73432460D01*
X119550288Y-73385590D01*
X119541187Y-73384440D01*
X119541186Y-73384440D01*
X119528075Y-73382784D01*
X119502080Y-73379500D01*
X119307017Y-73379500D01*
X119238896Y-73359498D01*
X119217922Y-73342595D01*
X119210922Y-73335595D01*
X119176896Y-73273283D01*
X119181961Y-73202468D01*
X119224508Y-73145632D01*
X119291028Y-73120821D01*
X119300017Y-73120500D01*
X119453356Y-73120500D01*
X119541458Y-73104965D01*
X119643869Y-73045838D01*
X119650956Y-73037393D01*
X119702677Y-72975754D01*
X119761787Y-72936428D01*
X119832774Y-72935302D01*
X119893102Y-72972734D01*
G37*
%TD.AperFunction*%
%TA.AperFunction,NonConductor*%
G36*
X117189088Y-73855502D02*
G01*
X117235581Y-73909158D01*
X117245685Y-73979432D01*
X117220929Y-74038204D01*
X117180652Y-74090694D01*
X117180650Y-74090697D01*
X117175622Y-74097250D01*
X117173502Y-74102367D01*
X117123034Y-74150491D01*
X117065294Y-74164500D01*
X116600986Y-74164500D01*
X116532865Y-74144498D01*
X116496222Y-74108503D01*
X116487204Y-74095007D01*
X116487203Y-74095006D01*
X116480310Y-74084690D01*
X116452735Y-74066265D01*
X116407207Y-74011788D01*
X116398359Y-73941345D01*
X116429000Y-73877301D01*
X116489402Y-73839990D01*
X116522737Y-73835500D01*
X117120967Y-73835500D01*
X117189088Y-73855502D01*
G37*
%TD.AperFunction*%
%TA.AperFunction,NonConductor*%
G36*
X116386133Y-72145502D02*
G01*
X116434421Y-72203281D01*
X116475622Y-72302750D01*
X116571847Y-72428153D01*
X116697250Y-72524378D01*
X116843285Y-72584868D01*
X117000000Y-72605500D01*
X117066681Y-72596721D01*
X117136828Y-72607660D01*
X117172221Y-72632548D01*
X117356065Y-72816392D01*
X117363492Y-72824496D01*
X117387559Y-72853178D01*
X117397108Y-72858691D01*
X117397109Y-72858692D01*
X117420184Y-72872015D01*
X117429452Y-72877919D01*
X117451295Y-72893213D01*
X117451298Y-72893215D01*
X117460325Y-72899535D01*
X117470970Y-72902388D01*
X117474134Y-72903863D01*
X117477418Y-72905058D01*
X117486962Y-72910568D01*
X117497816Y-72912482D01*
X117497819Y-72912483D01*
X117524067Y-72917112D01*
X117534795Y-72919490D01*
X117560541Y-72926388D01*
X117560543Y-72926388D01*
X117571194Y-72929242D01*
X117608490Y-72925979D01*
X117619472Y-72925500D01*
X118776170Y-72925500D01*
X118844291Y-72945502D01*
X118885292Y-72988505D01*
X118889333Y-72995505D01*
X118906068Y-73064501D01*
X118882844Y-73131592D01*
X118827035Y-73175477D01*
X118780211Y-73184500D01*
X116245986Y-73184500D01*
X116177865Y-73164498D01*
X116141222Y-73128503D01*
X116132204Y-73115007D01*
X116132202Y-73115005D01*
X116125310Y-73104690D01*
X116101766Y-73088958D01*
X116068958Y-73067036D01*
X116068956Y-73067035D01*
X116058641Y-73060143D01*
X116046474Y-73057723D01*
X116046472Y-73057722D01*
X116004831Y-73049439D01*
X115980000Y-73044500D01*
X115620000Y-73044500D01*
X115595169Y-73049439D01*
X115553528Y-73057722D01*
X115553526Y-73057723D01*
X115541359Y-73060143D01*
X115531044Y-73067035D01*
X115531042Y-73067036D01*
X115498234Y-73088958D01*
X115474690Y-73104690D01*
X115459292Y-73127735D01*
X115404816Y-73173262D01*
X115374493Y-73180970D01*
X115372075Y-73180758D01*
X115361432Y-73183610D01*
X115361430Y-73183610D01*
X115335680Y-73190510D01*
X115324948Y-73192889D01*
X115316246Y-73194424D01*
X115298701Y-73197517D01*
X115298699Y-73197518D01*
X115287842Y-73199432D01*
X115278294Y-73204945D01*
X115275008Y-73206141D01*
X115271852Y-73207613D01*
X115261205Y-73210465D01*
X115252174Y-73216789D01*
X115252173Y-73216789D01*
X115230332Y-73232081D01*
X115221064Y-73237985D01*
X115197989Y-73251308D01*
X115188439Y-73256822D01*
X115181352Y-73265267D01*
X115181353Y-73265267D01*
X115164372Y-73285504D01*
X115156945Y-73293608D01*
X113520595Y-74929958D01*
X113458283Y-74963984D01*
X113387468Y-74958919D01*
X113330632Y-74916372D01*
X113305821Y-74849852D01*
X113305500Y-74840863D01*
X113305500Y-73157016D01*
X113325502Y-73088895D01*
X113342405Y-73067921D01*
X114247921Y-72162405D01*
X114310233Y-72128379D01*
X114337016Y-72125500D01*
X116318012Y-72125500D01*
X116386133Y-72145502D01*
G37*
%TD.AperFunction*%
%TA.AperFunction,NonConductor*%
G36*
X108901766Y-67604124D02*
G01*
X108953440Y-67652811D01*
X108966819Y-67685442D01*
X108978746Y-67732404D01*
X109071106Y-67932750D01*
X109198431Y-68112910D01*
X109243547Y-68156860D01*
X109344789Y-68255485D01*
X109356454Y-68266849D01*
X109361250Y-68270054D01*
X109361253Y-68270056D01*
X109501210Y-68363572D01*
X109539885Y-68389414D01*
X109545188Y-68391692D01*
X109545191Y-68391694D01*
X109737273Y-68474219D01*
X109742580Y-68476499D01*
X109787415Y-68486644D01*
X109952114Y-68523912D01*
X109952119Y-68523913D01*
X109957751Y-68525187D01*
X109963522Y-68525414D01*
X109963524Y-68525414D01*
X110031247Y-68528075D01*
X110178191Y-68533848D01*
X110294141Y-68517036D01*
X110390804Y-68503021D01*
X110390809Y-68503020D01*
X110396518Y-68502192D01*
X110401982Y-68500337D01*
X110401987Y-68500336D01*
X110599953Y-68433135D01*
X110605421Y-68431279D01*
X110797903Y-68323484D01*
X110854286Y-68276591D01*
X110943343Y-68202522D01*
X110967517Y-68182417D01*
X111108584Y-68012803D01*
X111216379Y-67820321D01*
X111217162Y-67818014D01*
X111262437Y-67764743D01*
X111330363Y-67744091D01*
X111398672Y-67763441D01*
X111420663Y-67780990D01*
X111587595Y-67947922D01*
X111621621Y-68010234D01*
X111624500Y-68037017D01*
X111624500Y-72418500D01*
X111604498Y-72486621D01*
X111550842Y-72533114D01*
X111498500Y-72544500D01*
X110800000Y-72544500D01*
X110775169Y-72549439D01*
X110733528Y-72557722D01*
X110733526Y-72557723D01*
X110721359Y-72560143D01*
X110711044Y-72567035D01*
X110711042Y-72567036D01*
X110668047Y-72595765D01*
X110654690Y-72604690D01*
X110647797Y-72615006D01*
X110617036Y-72661042D01*
X110617035Y-72661044D01*
X110610143Y-72671359D01*
X110607723Y-72683526D01*
X110607722Y-72683528D01*
X110604446Y-72700000D01*
X110594500Y-72750000D01*
X110594500Y-74850000D01*
X110595707Y-74856067D01*
X110605691Y-74906258D01*
X110610143Y-74928641D01*
X110617035Y-74938956D01*
X110617036Y-74938958D01*
X110638122Y-74970514D01*
X110654690Y-74995310D01*
X110665006Y-75002203D01*
X110711042Y-75032964D01*
X110711044Y-75032965D01*
X110721359Y-75039857D01*
X110733526Y-75042277D01*
X110733528Y-75042278D01*
X110765850Y-75048707D01*
X110800000Y-75055500D01*
X113090863Y-75055500D01*
X113158984Y-75075502D01*
X113205477Y-75129158D01*
X113215581Y-75199432D01*
X113186087Y-75264012D01*
X113179958Y-75270595D01*
X112712958Y-75737595D01*
X112650646Y-75771621D01*
X112623863Y-75774500D01*
X108637017Y-75774500D01*
X108568896Y-75754498D01*
X108547921Y-75737595D01*
X108080922Y-75270595D01*
X108046897Y-75208283D01*
X108051962Y-75137467D01*
X108094509Y-75080632D01*
X108161029Y-75055821D01*
X108170018Y-75055500D01*
X108800000Y-75055500D01*
X108834150Y-75048707D01*
X108866472Y-75042278D01*
X108866474Y-75042277D01*
X108878641Y-75039857D01*
X108888956Y-75032965D01*
X108888958Y-75032964D01*
X108934994Y-75002203D01*
X108945310Y-74995310D01*
X108961878Y-74970514D01*
X108982964Y-74938958D01*
X108982965Y-74938956D01*
X108989857Y-74928641D01*
X108994310Y-74906258D01*
X109004293Y-74856067D01*
X109005500Y-74850000D01*
X109005500Y-72750000D01*
X108995554Y-72700000D01*
X108992278Y-72683528D01*
X108992277Y-72683526D01*
X108989857Y-72671359D01*
X108982965Y-72661044D01*
X108982964Y-72661042D01*
X108952203Y-72615006D01*
X108945310Y-72604690D01*
X108931953Y-72595765D01*
X108888958Y-72567036D01*
X108888956Y-72567035D01*
X108878641Y-72560143D01*
X108866474Y-72557723D01*
X108866472Y-72557722D01*
X108824831Y-72549439D01*
X108800000Y-72544500D01*
X108026600Y-72544500D01*
X107958479Y-72524498D01*
X107911986Y-72470842D01*
X107900600Y-72418500D01*
X107900600Y-68577518D01*
X107920602Y-68509397D01*
X107974258Y-68462904D01*
X107986099Y-68458205D01*
X108059953Y-68433135D01*
X108065421Y-68431279D01*
X108257903Y-68323484D01*
X108314286Y-68276591D01*
X108403343Y-68202522D01*
X108427517Y-68182417D01*
X108568584Y-68012803D01*
X108676379Y-67820321D01*
X108725384Y-67675957D01*
X108766221Y-67617881D01*
X108831974Y-67591103D01*
X108901766Y-67604124D01*
G37*
%TD.AperFunction*%
%TA.AperFunction,NonConductor*%
G36*
X115450087Y-65981094D02*
G01*
X115492307Y-66038173D01*
X115500000Y-66081527D01*
X115500000Y-70000000D01*
X126474000Y-70000000D01*
X126542121Y-70020002D01*
X126588614Y-70073658D01*
X126600000Y-70126000D01*
X126600000Y-76374000D01*
X126579998Y-76442121D01*
X126526342Y-76488614D01*
X126474000Y-76500000D01*
X113175397Y-76500000D01*
X113107276Y-76479998D01*
X113060783Y-76426342D01*
X113050679Y-76356068D01*
X113080173Y-76291488D01*
X113086302Y-76284905D01*
X114844405Y-74526802D01*
X114906717Y-74492776D01*
X114977532Y-74497841D01*
X115034368Y-74540388D01*
X115059179Y-74606908D01*
X115059500Y-74615897D01*
X115059500Y-74750000D01*
X115065518Y-74780254D01*
X115072079Y-74813237D01*
X115074500Y-74837819D01*
X115074500Y-74880528D01*
X115074020Y-74891510D01*
X115071718Y-74917817D01*
X115071719Y-74917825D01*
X115070758Y-74928805D01*
X115073611Y-74939451D01*
X115073611Y-74939456D01*
X115080510Y-74965200D01*
X115082890Y-74975935D01*
X115086552Y-74996702D01*
X115089432Y-75013038D01*
X115094945Y-75022586D01*
X115096141Y-75025872D01*
X115097613Y-75029028D01*
X115100465Y-75039675D01*
X115106789Y-75048706D01*
X115106789Y-75048707D01*
X115122081Y-75070548D01*
X115127985Y-75079816D01*
X115136281Y-75094184D01*
X115146822Y-75112441D01*
X115155267Y-75119527D01*
X115175504Y-75136508D01*
X115183608Y-75143935D01*
X115556065Y-75516392D01*
X115563492Y-75524496D01*
X115587559Y-75553178D01*
X115620194Y-75572019D01*
X115629460Y-75577923D01*
X115651293Y-75593211D01*
X115651299Y-75593214D01*
X115660325Y-75599534D01*
X115670970Y-75602387D01*
X115674141Y-75603865D01*
X115677418Y-75605058D01*
X115686962Y-75610568D01*
X115697814Y-75612482D01*
X115697815Y-75612482D01*
X115713766Y-75615295D01*
X115724076Y-75617113D01*
X115734800Y-75619490D01*
X115741843Y-75621378D01*
X115760545Y-75626389D01*
X115760547Y-75626389D01*
X115771194Y-75629242D01*
X115808490Y-75625979D01*
X115819472Y-75625500D01*
X118776170Y-75625500D01*
X118844291Y-75645502D01*
X118885290Y-75688502D01*
X118894162Y-75703869D01*
X118902603Y-75710952D01*
X118902604Y-75710953D01*
X118966233Y-75764344D01*
X118984750Y-75779882D01*
X119095873Y-75820327D01*
X119097850Y-75820500D01*
X119453356Y-75820500D01*
X119541458Y-75804965D01*
X119623930Y-75757350D01*
X119634324Y-75751349D01*
X119634325Y-75751348D01*
X119643869Y-75745838D01*
X119679086Y-75703869D01*
X119702677Y-75675754D01*
X119761787Y-75636428D01*
X119832774Y-75635302D01*
X119893102Y-75672734D01*
X119908315Y-75693742D01*
X119914162Y-75703869D01*
X119922603Y-75710952D01*
X119922604Y-75710953D01*
X119986233Y-75764344D01*
X120004750Y-75779882D01*
X120115873Y-75820327D01*
X120117850Y-75820500D01*
X120473356Y-75820500D01*
X120561458Y-75804965D01*
X120643930Y-75757350D01*
X120657877Y-75749298D01*
X120726873Y-75732560D01*
X120793965Y-75755781D01*
X120837286Y-75810199D01*
X120875622Y-75902750D01*
X120971847Y-76028153D01*
X121097250Y-76124378D01*
X121243285Y-76184868D01*
X121400000Y-76205500D01*
X121408188Y-76204422D01*
X121548527Y-76185946D01*
X121556715Y-76184868D01*
X121702750Y-76124378D01*
X121828153Y-76028153D01*
X121924378Y-75902750D01*
X121984868Y-75756715D01*
X122005500Y-75600000D01*
X121984868Y-75443285D01*
X121924378Y-75297250D01*
X121828153Y-75171847D01*
X121702750Y-75075622D01*
X121556715Y-75015132D01*
X121400000Y-74994500D01*
X121297877Y-75007945D01*
X121240053Y-74999047D01*
X121239673Y-75000465D01*
X121237695Y-74999935D01*
X121233053Y-74998471D01*
X121232980Y-74998671D01*
X121232384Y-74998512D01*
X121231049Y-74998026D01*
X121229648Y-74997446D01*
X121228188Y-74997221D01*
X121225871Y-74996141D01*
X121222587Y-74994946D01*
X121213038Y-74989432D01*
X121202181Y-74987518D01*
X121202179Y-74987517D01*
X121184634Y-74984424D01*
X121175932Y-74982889D01*
X121165200Y-74980510D01*
X121139456Y-74973611D01*
X121139451Y-74973611D01*
X121128805Y-74970758D01*
X121117825Y-74971719D01*
X121117817Y-74971718D01*
X121091510Y-74974020D01*
X121080528Y-74974500D01*
X120823830Y-74974500D01*
X120755709Y-74954498D01*
X120714710Y-74911498D01*
X120711348Y-74905675D01*
X120705838Y-74896131D01*
X120687244Y-74880528D01*
X120623696Y-74827205D01*
X120615250Y-74820118D01*
X120504127Y-74779673D01*
X120502150Y-74779500D01*
X120146644Y-74779500D01*
X120058542Y-74795035D01*
X120002822Y-74827205D01*
X119979166Y-74840863D01*
X119956131Y-74854162D01*
X119949048Y-74862603D01*
X119949047Y-74862604D01*
X119897323Y-74924246D01*
X119838213Y-74963572D01*
X119767226Y-74964698D01*
X119706898Y-74927266D01*
X119691685Y-74906258D01*
X119691349Y-74905676D01*
X119691348Y-74905675D01*
X119685838Y-74896131D01*
X119667244Y-74880528D01*
X119603696Y-74827205D01*
X119595250Y-74820118D01*
X119484127Y-74779673D01*
X119482150Y-74779500D01*
X119126644Y-74779500D01*
X119038542Y-74795035D01*
X118982822Y-74827205D01*
X118959166Y-74840863D01*
X118936131Y-74854162D01*
X118929048Y-74862603D01*
X118929047Y-74862604D01*
X118872921Y-74929492D01*
X118813811Y-74968818D01*
X118776400Y-74974500D01*
X118271360Y-74974500D01*
X118203239Y-74954498D01*
X118156746Y-74900842D01*
X118146642Y-74830568D01*
X118171398Y-74771796D01*
X118219348Y-74709306D01*
X118219350Y-74709303D01*
X118224378Y-74702750D01*
X118284868Y-74556715D01*
X118287018Y-74540388D01*
X118304422Y-74408188D01*
X118305500Y-74400000D01*
X118284868Y-74243285D01*
X118224378Y-74097250D01*
X118219350Y-74090697D01*
X118219348Y-74090694D01*
X118179071Y-74038204D01*
X118153470Y-73971984D01*
X118167734Y-73902435D01*
X118217335Y-73851639D01*
X118279033Y-73835500D01*
X118693500Y-73835500D01*
X118761621Y-73855502D01*
X118808114Y-73909158D01*
X118819500Y-73961500D01*
X118819500Y-74102540D01*
X118820354Y-74107671D01*
X118821088Y-74112080D01*
X118833532Y-74186843D01*
X118888575Y-74288856D01*
X118973695Y-74367540D01*
X118983219Y-74371750D01*
X118983218Y-74371750D01*
X119065616Y-74408178D01*
X119079712Y-74414410D01*
X119088813Y-74415560D01*
X119088814Y-74415560D01*
X119101925Y-74417216D01*
X119127920Y-74420500D01*
X119492540Y-74420500D01*
X119576843Y-74406468D01*
X119588831Y-74400000D01*
X119606658Y-74390381D01*
X119678856Y-74351425D01*
X119685928Y-74343775D01*
X119707324Y-74320629D01*
X119768252Y-74284183D01*
X119839212Y-74286463D01*
X119885378Y-74313633D01*
X119936046Y-74360470D01*
X119936048Y-74360472D01*
X119943695Y-74367540D01*
X119953219Y-74371750D01*
X119953218Y-74371750D01*
X120035616Y-74408178D01*
X120049712Y-74414410D01*
X120058813Y-74415560D01*
X120058814Y-74415560D01*
X120071925Y-74417216D01*
X120097920Y-74420500D01*
X120462540Y-74420500D01*
X120546843Y-74406468D01*
X120558831Y-74400000D01*
X120576658Y-74390381D01*
X120648856Y-74351425D01*
X120677324Y-74320629D01*
X120720473Y-74273950D01*
X120727540Y-74266305D01*
X120774410Y-74160288D01*
X120780500Y-74112080D01*
X120780500Y-73877952D01*
X121894615Y-73877952D01*
X121911102Y-74163889D01*
X121911927Y-74168096D01*
X121911928Y-74168101D01*
X121924769Y-74233551D01*
X121966243Y-74444943D01*
X121967630Y-74448994D01*
X121967631Y-74448998D01*
X122057628Y-74711859D01*
X122057632Y-74711868D01*
X122059017Y-74715914D01*
X122109104Y-74815500D01*
X122184143Y-74964698D01*
X122187708Y-74971787D01*
X122261954Y-75079816D01*
X122331783Y-75181418D01*
X122349933Y-75207827D01*
X122542693Y-75419666D01*
X122545982Y-75422416D01*
X122759126Y-75600633D01*
X122759131Y-75600637D01*
X122762418Y-75603385D01*
X122845098Y-75655250D01*
X123001404Y-75753301D01*
X123001408Y-75753303D01*
X123005044Y-75755584D01*
X123008954Y-75757349D01*
X123008955Y-75757350D01*
X123262170Y-75871681D01*
X123262174Y-75871683D01*
X123266082Y-75873447D01*
X123540699Y-75954793D01*
X123544933Y-75955441D01*
X123544938Y-75955442D01*
X123793635Y-75993498D01*
X123823816Y-75998116D01*
X123969700Y-76000407D01*
X124105902Y-76002547D01*
X124105908Y-76002547D01*
X124110193Y-76002614D01*
X124394531Y-75968206D01*
X124671569Y-75895526D01*
X124936179Y-75785921D01*
X124940061Y-75783653D01*
X125179769Y-75643579D01*
X125179770Y-75643579D01*
X125183467Y-75641418D01*
X125213248Y-75618067D01*
X125405482Y-75467335D01*
X125408854Y-75464691D01*
X125608173Y-75259011D01*
X125777732Y-75028183D01*
X125914397Y-74776479D01*
X126015636Y-74508556D01*
X126079578Y-74229373D01*
X126105038Y-73944094D01*
X126105500Y-73900000D01*
X126103102Y-73864827D01*
X126086312Y-73618528D01*
X126086311Y-73618522D01*
X126086020Y-73614251D01*
X126083137Y-73600327D01*
X126039788Y-73391006D01*
X126027939Y-73333789D01*
X125932332Y-73063805D01*
X125815708Y-72837850D01*
X125802934Y-72813101D01*
X125802934Y-72813100D01*
X125800969Y-72809294D01*
X125790431Y-72794299D01*
X125688571Y-72649368D01*
X125636281Y-72574966D01*
X125491868Y-72419559D01*
X125444235Y-72368300D01*
X125444232Y-72368298D01*
X125441314Y-72365157D01*
X125437998Y-72362443D01*
X125437995Y-72362440D01*
X125222995Y-72186463D01*
X125222988Y-72186458D01*
X125219677Y-72183748D01*
X124975470Y-72034098D01*
X124971553Y-72032379D01*
X124971550Y-72032377D01*
X124809154Y-71961091D01*
X124713213Y-71918976D01*
X124709085Y-71917800D01*
X124709082Y-71917799D01*
X124617854Y-71891812D01*
X124437758Y-71840510D01*
X124433516Y-71839906D01*
X124433510Y-71839905D01*
X124224946Y-71810222D01*
X124154203Y-71800154D01*
X124003813Y-71799367D01*
X123872081Y-71798677D01*
X123872075Y-71798677D01*
X123867795Y-71798655D01*
X123863551Y-71799214D01*
X123863547Y-71799214D01*
X123738910Y-71815623D01*
X123583832Y-71836039D01*
X123579692Y-71837172D01*
X123579690Y-71837172D01*
X123311716Y-71910482D01*
X123307571Y-71911616D01*
X123266090Y-71929309D01*
X123048065Y-72022304D01*
X123048058Y-72022308D01*
X123044123Y-72023986D01*
X123040442Y-72026189D01*
X122802045Y-72168866D01*
X122802041Y-72168869D01*
X122798363Y-72171070D01*
X122795020Y-72173748D01*
X122795016Y-72173751D01*
X122706789Y-72244435D01*
X122574838Y-72350148D01*
X122571894Y-72353250D01*
X122571890Y-72353254D01*
X122387275Y-72547797D01*
X122377684Y-72557904D01*
X122210551Y-72790495D01*
X122076530Y-73043616D01*
X122043091Y-73134994D01*
X121987153Y-73287852D01*
X121978102Y-73312584D01*
X121917087Y-73592422D01*
X121894615Y-73877952D01*
X120780500Y-73877952D01*
X120780500Y-73697460D01*
X120766468Y-73613157D01*
X120759546Y-73600327D01*
X120734362Y-73553654D01*
X120711425Y-73511144D01*
X120689583Y-73490953D01*
X120650971Y-73455261D01*
X120614526Y-73394332D01*
X120610500Y-73362736D01*
X120610500Y-73146876D01*
X120630502Y-73078755D01*
X120654953Y-73050986D01*
X120663869Y-73045838D01*
X120739882Y-72955250D01*
X120780327Y-72844127D01*
X120780500Y-72842150D01*
X120780500Y-72386644D01*
X120764965Y-72298542D01*
X120722070Y-72224246D01*
X120711349Y-72205676D01*
X120711348Y-72205675D01*
X120705838Y-72196131D01*
X120695207Y-72187210D01*
X120623696Y-72127205D01*
X120615250Y-72120118D01*
X120504127Y-72079673D01*
X120502150Y-72079500D01*
X120146644Y-72079500D01*
X120058542Y-72095035D01*
X119992476Y-72133178D01*
X119971131Y-72145502D01*
X119956131Y-72154162D01*
X119949048Y-72162603D01*
X119949047Y-72162604D01*
X119897323Y-72224246D01*
X119838213Y-72263572D01*
X119767226Y-72264698D01*
X119706898Y-72227266D01*
X119691685Y-72206258D01*
X119691349Y-72205676D01*
X119691348Y-72205675D01*
X119685838Y-72196131D01*
X119675207Y-72187210D01*
X119603696Y-72127205D01*
X119595250Y-72120118D01*
X119484127Y-72079673D01*
X119482150Y-72079500D01*
X119126644Y-72079500D01*
X119038542Y-72095035D01*
X118972476Y-72133178D01*
X118951131Y-72145502D01*
X118936131Y-72154162D01*
X118929048Y-72162603D01*
X118929047Y-72162604D01*
X118872921Y-72229492D01*
X118813811Y-72268818D01*
X118776400Y-72274500D01*
X117787017Y-72274500D01*
X117718896Y-72254498D01*
X117697922Y-72237595D01*
X117632548Y-72172221D01*
X117598522Y-72109909D01*
X117596721Y-72066679D01*
X117597029Y-72064344D01*
X117605500Y-72000000D01*
X117584868Y-71843285D01*
X117524378Y-71697250D01*
X117428153Y-71571847D01*
X117302750Y-71475622D01*
X117156715Y-71415132D01*
X117104062Y-71408200D01*
X117042673Y-71400118D01*
X117000000Y-71394500D01*
X116957327Y-71400118D01*
X116895939Y-71408200D01*
X116843285Y-71415132D01*
X116723112Y-71464910D01*
X116674896Y-71474500D01*
X114169473Y-71474500D01*
X114158491Y-71474021D01*
X114121195Y-71470758D01*
X114110549Y-71473611D01*
X114110544Y-71473611D01*
X114084800Y-71480510D01*
X114074068Y-71482889D01*
X114065366Y-71484424D01*
X114047821Y-71487517D01*
X114047819Y-71487518D01*
X114036962Y-71489432D01*
X114027414Y-71494945D01*
X114024128Y-71496141D01*
X114020972Y-71497613D01*
X114010325Y-71500465D01*
X113986770Y-71516958D01*
X113979459Y-71522077D01*
X113970192Y-71527980D01*
X113947107Y-71541309D01*
X113947106Y-71541310D01*
X113937559Y-71546822D01*
X113916569Y-71571837D01*
X113913487Y-71575510D01*
X113906060Y-71583614D01*
X112982079Y-72507595D01*
X112919767Y-72541621D01*
X112892984Y-72544500D01*
X112401500Y-72544500D01*
X112333379Y-72524498D01*
X112286886Y-72470842D01*
X112275500Y-72418500D01*
X112275500Y-67869472D01*
X112275980Y-67858490D01*
X112278282Y-67832183D01*
X112278281Y-67832175D01*
X112279242Y-67821195D01*
X112276389Y-67810549D01*
X112276389Y-67810544D01*
X112269490Y-67784800D01*
X112267110Y-67774065D01*
X112262483Y-67747821D01*
X112262482Y-67747819D01*
X112260568Y-67736962D01*
X112255055Y-67727414D01*
X112253859Y-67724128D01*
X112252387Y-67720972D01*
X112249535Y-67710325D01*
X112242979Y-67700962D01*
X112227919Y-67679452D01*
X112222015Y-67670184D01*
X112208692Y-67647109D01*
X112208691Y-67647108D01*
X112203178Y-67637559D01*
X112174496Y-67613492D01*
X112166392Y-67606065D01*
X111673935Y-67113608D01*
X111666508Y-67105504D01*
X111649527Y-67085267D01*
X111649528Y-67085267D01*
X111642441Y-67076822D01*
X111632891Y-67071308D01*
X111609816Y-67057985D01*
X111600548Y-67052081D01*
X111578707Y-67036789D01*
X111578706Y-67036789D01*
X111569675Y-67030465D01*
X111559028Y-67027613D01*
X111555872Y-67026141D01*
X111552586Y-67024945D01*
X111543038Y-67019432D01*
X111532181Y-67017518D01*
X111532179Y-67017517D01*
X111514634Y-67014424D01*
X111505932Y-67012889D01*
X111495200Y-67010510D01*
X111469456Y-67003611D01*
X111469451Y-67003611D01*
X111458805Y-67000758D01*
X111447825Y-67001719D01*
X111447817Y-67001718D01*
X111421510Y-67004020D01*
X111410528Y-67004500D01*
X111365950Y-67004500D01*
X111297829Y-66984498D01*
X111251336Y-66930842D01*
X111244681Y-66912701D01*
X111242100Y-66903548D01*
X111242098Y-66903542D01*
X111240531Y-66897987D01*
X111234769Y-66886301D01*
X111145513Y-66705309D01*
X111142958Y-66700128D01*
X111133307Y-66687203D01*
X111014414Y-66527987D01*
X111014413Y-66527986D01*
X111010961Y-66523363D01*
X111004211Y-66517123D01*
X110853203Y-66377533D01*
X110853201Y-66377531D01*
X110848962Y-66373613D01*
X110756057Y-66314994D01*
X110667266Y-66258971D01*
X110662386Y-66255892D01*
X110659386Y-66254695D01*
X110608370Y-66206516D01*
X110591301Y-66137602D01*
X110614201Y-66070399D01*
X110669797Y-66026245D01*
X110716720Y-66016995D01*
X111559943Y-66013878D01*
X115188854Y-66000465D01*
X115216922Y-65997337D01*
X115228082Y-65996093D01*
X115228085Y-65996092D01*
X115231427Y-65995720D01*
X115283816Y-65984099D01*
X115293789Y-65981616D01*
X115314250Y-65970595D01*
X115383710Y-65955902D01*
X115450087Y-65981094D01*
G37*
%TD.AperFunction*%
M02*
