%TF.GenerationSoftware,KiCad,Pcbnew,(5.99.0-10548-gc49af57c2a)*%
%TF.CreationDate,2021-06-24T16:08:38+08:00*%
%TF.ProjectId,facegate-relay-v3-new,66616365-6761-4746-952d-72656c61792d,v01*%
%TF.SameCoordinates,Original*%
%TF.FileFunction,Paste,Top*%
%TF.FilePolarity,Positive*%
%FSLAX46Y46*%
G04 Gerber Fmt 4.6, Leading zero omitted, Abs format (unit mm)*
G04 Created by KiCad (PCBNEW (5.99.0-10548-gc49af57c2a)) date 2021-06-24 16:08:38*
%MOMM*%
%LPD*%
G01*
G04 APERTURE LIST*
G04 Aperture macros list*
%AMRoundRect*
0 Rectangle with rounded corners*
0 $1 Rounding radius*
0 $2 $3 $4 $5 $6 $7 $8 $9 X,Y pos of 4 corners*
0 Add a 4 corners polygon primitive as box body*
4,1,4,$2,$3,$4,$5,$6,$7,$8,$9,$2,$3,0*
0 Add four circle primitives for the rounded corners*
1,1,$1+$1,$2,$3*
1,1,$1+$1,$4,$5*
1,1,$1+$1,$6,$7*
1,1,$1+$1,$8,$9*
0 Add four rect primitives between the rounded corners*
20,1,$1+$1,$2,$3,$4,$5,0*
20,1,$1+$1,$4,$5,$6,$7,0*
20,1,$1+$1,$6,$7,$8,$9,0*
20,1,$1+$1,$8,$9,$2,$3,0*%
G04 Aperture macros list end*
%ADD10C,0.150000*%
%ADD11C,0.100000*%
%ADD12C,0.010000*%
%ADD13RoundRect,0.135000X0.135000X0.185000X-0.135000X0.185000X-0.135000X-0.185000X0.135000X-0.185000X0*%
%ADD14R,0.540000X0.600000*%
%ADD15R,0.270000X0.520000*%
%ADD16R,0.360000X0.520000*%
%ADD17R,0.590000X0.600000*%
%ADD18RoundRect,0.135000X-0.135000X-0.185000X0.135000X-0.185000X0.135000X0.185000X-0.135000X0.185000X0*%
%ADD19RoundRect,0.135000X-0.185000X0.135000X-0.185000X-0.135000X0.185000X-0.135000X0.185000X0.135000X0*%
%ADD20R,2.300000X2.100000*%
%ADD21RoundRect,0.147500X-0.147500X-0.172500X0.147500X-0.172500X0.147500X0.172500X-0.147500X0.172500X0*%
%ADD22R,0.520000X0.270000*%
%ADD23R,0.520000X0.360000*%
%ADD24R,0.381000X0.660400*%
%ADD25R,2.600000X2.200000*%
%ADD26R,1.050000X0.450000*%
G04 APERTURE END LIST*
D10*
X128802380Y-71497619D02*
X128802380Y-72069047D01*
X128802380Y-71783333D02*
X127802380Y-71783333D01*
X127945238Y-71878571D01*
X128040476Y-71973809D01*
X128088095Y-72069047D01*
X128230952Y-70926190D02*
X128183333Y-71021428D01*
X128135714Y-71069047D01*
X128040476Y-71116666D01*
X127992857Y-71116666D01*
X127897619Y-71069047D01*
X127850000Y-71021428D01*
X127802380Y-70926190D01*
X127802380Y-70735714D01*
X127850000Y-70640476D01*
X127897619Y-70592857D01*
X127992857Y-70545238D01*
X128040476Y-70545238D01*
X128135714Y-70592857D01*
X128183333Y-70640476D01*
X128230952Y-70735714D01*
X128230952Y-70926190D01*
X128278571Y-71021428D01*
X128326190Y-71069047D01*
X128421428Y-71116666D01*
X128611904Y-71116666D01*
X128707142Y-71069047D01*
X128754761Y-71021428D01*
X128802380Y-70926190D01*
X128802380Y-70735714D01*
X128754761Y-70640476D01*
X128707142Y-70592857D01*
X128611904Y-70545238D01*
X128421428Y-70545238D01*
X128326190Y-70592857D01*
X128278571Y-70640476D01*
X128230952Y-70735714D01*
X128707142Y-70116666D02*
X128754761Y-70069047D01*
X128802380Y-70116666D01*
X128754761Y-70164285D01*
X128707142Y-70116666D01*
X128802380Y-70116666D01*
X127802380Y-69164285D02*
X127802380Y-69640476D01*
X128278571Y-69688095D01*
X128230952Y-69640476D01*
X128183333Y-69545238D01*
X128183333Y-69307142D01*
X128230952Y-69211904D01*
X128278571Y-69164285D01*
X128373809Y-69116666D01*
X128611904Y-69116666D01*
X128707142Y-69164285D01*
X128754761Y-69211904D01*
X128802380Y-69307142D01*
X128802380Y-69545238D01*
X128754761Y-69640476D01*
X128707142Y-69688095D01*
X127802380Y-68497619D02*
X127802380Y-68402380D01*
X127850000Y-68307142D01*
X127897619Y-68259523D01*
X127992857Y-68211904D01*
X128183333Y-68164285D01*
X128421428Y-68164285D01*
X128611904Y-68211904D01*
X128707142Y-68259523D01*
X128754761Y-68307142D01*
X128802380Y-68402380D01*
X128802380Y-68497619D01*
X128754761Y-68592857D01*
X128707142Y-68640476D01*
X128611904Y-68688095D01*
X128421428Y-68735714D01*
X128183333Y-68735714D01*
X127992857Y-68688095D01*
X127897619Y-68640476D01*
X127850000Y-68592857D01*
X127802380Y-68497619D01*
X127802380Y-67545238D02*
X127802380Y-67450000D01*
X127850000Y-67354761D01*
X127897619Y-67307142D01*
X127992857Y-67259523D01*
X128183333Y-67211904D01*
X128421428Y-67211904D01*
X128611904Y-67259523D01*
X128707142Y-67307142D01*
X128754761Y-67354761D01*
X128802380Y-67450000D01*
X128802380Y-67545238D01*
X128754761Y-67640476D01*
X128707142Y-67688095D01*
X128611904Y-67735714D01*
X128421428Y-67783333D01*
X128183333Y-67783333D01*
X127992857Y-67735714D01*
X127897619Y-67688095D01*
X127850000Y-67640476D01*
X127802380Y-67545238D01*
X127802380Y-66592857D02*
X127802380Y-66497619D01*
X127850000Y-66402380D01*
X127897619Y-66354761D01*
X127992857Y-66307142D01*
X128183333Y-66259523D01*
X128421428Y-66259523D01*
X128611904Y-66307142D01*
X128707142Y-66354761D01*
X128754761Y-66402380D01*
X128802380Y-66497619D01*
X128802380Y-66592857D01*
X128754761Y-66688095D01*
X128707142Y-66735714D01*
X128611904Y-66783333D01*
X128421428Y-66830952D01*
X128183333Y-66830952D01*
X127992857Y-66783333D01*
X127897619Y-66735714D01*
X127850000Y-66688095D01*
X127802380Y-66592857D01*
X128802380Y-65069047D02*
X128135714Y-65069047D01*
X128230952Y-65069047D02*
X128183333Y-65021428D01*
X128135714Y-64926190D01*
X128135714Y-64783333D01*
X128183333Y-64688095D01*
X128278571Y-64640476D01*
X128802380Y-64640476D01*
X128278571Y-64640476D02*
X128183333Y-64592857D01*
X128135714Y-64497619D01*
X128135714Y-64354761D01*
X128183333Y-64259523D01*
X128278571Y-64211904D01*
X128802380Y-64211904D01*
X128802380Y-63735714D02*
X128135714Y-63735714D01*
X128230952Y-63735714D02*
X128183333Y-63688095D01*
X128135714Y-63592857D01*
X128135714Y-63450000D01*
X128183333Y-63354761D01*
X128278571Y-63307142D01*
X128802380Y-63307142D01*
X128278571Y-63307142D02*
X128183333Y-63259523D01*
X128135714Y-63164285D01*
X128135714Y-63021428D01*
X128183333Y-62926190D01*
X128278571Y-62878571D01*
X128802380Y-62878571D01*
X127300000Y-58200000D02*
X130086420Y-58200000D01*
X127300000Y-76700000D02*
X130086420Y-76700000D01*
X129500000Y-58200000D02*
X129500000Y-76700000D01*
X129500000Y-58200000D02*
X129500000Y-76700000D01*
X129500000Y-58200000D02*
X128913579Y-59326504D01*
X129500000Y-58200000D02*
X130086421Y-59326504D01*
X129500000Y-76700000D02*
X130086421Y-75573496D01*
X129500000Y-76700000D02*
X128913579Y-75573496D01*
X104283333Y-54702380D02*
X104902380Y-54702380D01*
X104569047Y-55083333D01*
X104711904Y-55083333D01*
X104807142Y-55130952D01*
X104854761Y-55178571D01*
X104902380Y-55273809D01*
X104902380Y-55511904D01*
X104854761Y-55607142D01*
X104807142Y-55654761D01*
X104711904Y-55702380D01*
X104426190Y-55702380D01*
X104330952Y-55654761D01*
X104283333Y-55607142D01*
X105807142Y-54702380D02*
X105330952Y-54702380D01*
X105283333Y-55178571D01*
X105330952Y-55130952D01*
X105426190Y-55083333D01*
X105664285Y-55083333D01*
X105759523Y-55130952D01*
X105807142Y-55178571D01*
X105854761Y-55273809D01*
X105854761Y-55511904D01*
X105807142Y-55607142D01*
X105759523Y-55654761D01*
X105664285Y-55702380D01*
X105426190Y-55702380D01*
X105330952Y-55654761D01*
X105283333Y-55607142D01*
X106283333Y-55607142D02*
X106330952Y-55654761D01*
X106283333Y-55702380D01*
X106235714Y-55654761D01*
X106283333Y-55607142D01*
X106283333Y-55702380D01*
X106664285Y-54702380D02*
X107330952Y-54702380D01*
X106902380Y-55702380D01*
X107902380Y-54702380D02*
X107997619Y-54702380D01*
X108092857Y-54750000D01*
X108140476Y-54797619D01*
X108188095Y-54892857D01*
X108235714Y-55083333D01*
X108235714Y-55321428D01*
X108188095Y-55511904D01*
X108140476Y-55607142D01*
X108092857Y-55654761D01*
X107997619Y-55702380D01*
X107902380Y-55702380D01*
X107807142Y-55654761D01*
X107759523Y-55607142D01*
X107711904Y-55511904D01*
X107664285Y-55321428D01*
X107664285Y-55083333D01*
X107711904Y-54892857D01*
X107759523Y-54797619D01*
X107807142Y-54750000D01*
X107902380Y-54702380D01*
X108854761Y-54702380D02*
X108950000Y-54702380D01*
X109045238Y-54750000D01*
X109092857Y-54797619D01*
X109140476Y-54892857D01*
X109188095Y-55083333D01*
X109188095Y-55321428D01*
X109140476Y-55511904D01*
X109092857Y-55607142D01*
X109045238Y-55654761D01*
X108950000Y-55702380D01*
X108854761Y-55702380D01*
X108759523Y-55654761D01*
X108711904Y-55607142D01*
X108664285Y-55511904D01*
X108616666Y-55321428D01*
X108616666Y-55083333D01*
X108664285Y-54892857D01*
X108711904Y-54797619D01*
X108759523Y-54750000D01*
X108854761Y-54702380D01*
X109807142Y-54702380D02*
X109902380Y-54702380D01*
X109997619Y-54750000D01*
X110045238Y-54797619D01*
X110092857Y-54892857D01*
X110140476Y-55083333D01*
X110140476Y-55321428D01*
X110092857Y-55511904D01*
X110045238Y-55607142D01*
X109997619Y-55654761D01*
X109902380Y-55702380D01*
X109807142Y-55702380D01*
X109711904Y-55654761D01*
X109664285Y-55607142D01*
X109616666Y-55511904D01*
X109569047Y-55321428D01*
X109569047Y-55083333D01*
X109616666Y-54892857D01*
X109664285Y-54797619D01*
X109711904Y-54750000D01*
X109807142Y-54702380D01*
X111330952Y-55702380D02*
X111330952Y-55035714D01*
X111330952Y-55130952D02*
X111378571Y-55083333D01*
X111473809Y-55035714D01*
X111616666Y-55035714D01*
X111711904Y-55083333D01*
X111759523Y-55178571D01*
X111759523Y-55702380D01*
X111759523Y-55178571D02*
X111807142Y-55083333D01*
X111902380Y-55035714D01*
X112045238Y-55035714D01*
X112140476Y-55083333D01*
X112188095Y-55178571D01*
X112188095Y-55702380D01*
X112664285Y-55702380D02*
X112664285Y-55035714D01*
X112664285Y-55130952D02*
X112711904Y-55083333D01*
X112807142Y-55035714D01*
X112950000Y-55035714D01*
X113045238Y-55083333D01*
X113092857Y-55178571D01*
X113092857Y-55702380D01*
X113092857Y-55178571D02*
X113140476Y-55083333D01*
X113235714Y-55035714D01*
X113378571Y-55035714D01*
X113473809Y-55083333D01*
X113521428Y-55178571D01*
X113521428Y-55702380D01*
X91100000Y-57700000D02*
X91100000Y-55813580D01*
X126800000Y-57700000D02*
X126800000Y-55813580D01*
X91100000Y-56400000D02*
X126800000Y-56400000D01*
X91100000Y-56400000D02*
X126800000Y-56400000D01*
X91100000Y-56400000D02*
X92226504Y-56986421D01*
X91100000Y-56400000D02*
X92226504Y-55813579D01*
X126800000Y-56400000D02*
X125673496Y-55813579D01*
X126800000Y-56400000D02*
X125673496Y-56986421D01*
D11*
%TO.C,U1*%
X101755400Y-70747851D02*
X101755400Y-68639651D01*
X101755400Y-68639651D02*
X104244600Y-68639651D01*
X104244600Y-68639651D02*
X104244600Y-70747851D01*
X104244600Y-70747851D02*
X101755400Y-70747851D01*
G36*
X104244600Y-70747851D02*
G01*
X101755400Y-70747851D01*
X101755400Y-68639651D01*
X104244600Y-68639651D01*
X104244600Y-70747851D01*
G37*
X104244600Y-70747851D02*
X101755400Y-70747851D01*
X101755400Y-68639651D01*
X104244600Y-68639651D01*
X104244600Y-70747851D01*
D12*
%TO.C,KILL*%
X101150000Y-61350000D02*
X101150000Y-59650000D01*
X101150000Y-59650000D02*
X100685000Y-59650000D01*
X100685000Y-59650000D02*
X100678196Y-59649822D01*
X100678196Y-59649822D02*
X100671411Y-59649288D01*
X100671411Y-59649288D02*
X100664664Y-59648399D01*
X100664664Y-59648399D02*
X100657971Y-59647159D01*
X100657971Y-59647159D02*
X100651354Y-59645570D01*
X100651354Y-59645570D02*
X100644828Y-59643637D01*
X100644828Y-59643637D02*
X100638412Y-59641365D01*
X100638412Y-59641365D02*
X100632124Y-59638761D01*
X100632124Y-59638761D02*
X100625981Y-59635831D01*
X100625981Y-59635831D02*
X100620000Y-59632583D01*
X100620000Y-59632583D02*
X100614197Y-59629027D01*
X100614197Y-59629027D02*
X100608588Y-59625172D01*
X100608588Y-59625172D02*
X100603188Y-59621029D01*
X100603188Y-59621029D02*
X100598013Y-59616609D01*
X100598013Y-59616609D02*
X100593076Y-59611924D01*
X100593076Y-59611924D02*
X100588391Y-59606987D01*
X100588391Y-59606987D02*
X100583971Y-59601812D01*
X100583971Y-59601812D02*
X100579828Y-59596412D01*
X100579828Y-59596412D02*
X100575973Y-59590803D01*
X100575973Y-59590803D02*
X100572417Y-59585000D01*
X100572417Y-59585000D02*
X100569169Y-59579019D01*
X100569169Y-59579019D02*
X100566239Y-59572876D01*
X100566239Y-59572876D02*
X100563635Y-59566588D01*
X100563635Y-59566588D02*
X100561363Y-59560172D01*
X100561363Y-59560172D02*
X100559430Y-59553646D01*
X100559430Y-59553646D02*
X100557841Y-59547029D01*
X100557841Y-59547029D02*
X100556601Y-59540336D01*
X100556601Y-59540336D02*
X100555712Y-59533589D01*
X100555712Y-59533589D02*
X100555178Y-59526804D01*
X100555178Y-59526804D02*
X100555000Y-59520000D01*
X100555000Y-59520000D02*
X100555000Y-58530000D01*
X100555000Y-58530000D02*
X100045000Y-58530000D01*
X100045000Y-58530000D02*
X100045000Y-59520000D01*
X100045000Y-59520000D02*
X100044822Y-59526804D01*
X100044822Y-59526804D02*
X100044288Y-59533589D01*
X100044288Y-59533589D02*
X100043399Y-59540336D01*
X100043399Y-59540336D02*
X100042159Y-59547029D01*
X100042159Y-59547029D02*
X100040570Y-59553646D01*
X100040570Y-59553646D02*
X100038637Y-59560172D01*
X100038637Y-59560172D02*
X100036365Y-59566588D01*
X100036365Y-59566588D02*
X100033761Y-59572876D01*
X100033761Y-59572876D02*
X100030831Y-59579019D01*
X100030831Y-59579019D02*
X100027583Y-59585000D01*
X100027583Y-59585000D02*
X100024027Y-59590803D01*
X100024027Y-59590803D02*
X100020172Y-59596412D01*
X100020172Y-59596412D02*
X100016029Y-59601812D01*
X100016029Y-59601812D02*
X100011609Y-59606987D01*
X100011609Y-59606987D02*
X100006924Y-59611924D01*
X100006924Y-59611924D02*
X100001987Y-59616609D01*
X100001987Y-59616609D02*
X99996812Y-59621029D01*
X99996812Y-59621029D02*
X99991412Y-59625172D01*
X99991412Y-59625172D02*
X99985803Y-59629027D01*
X99985803Y-59629027D02*
X99980000Y-59632583D01*
X99980000Y-59632583D02*
X99974019Y-59635831D01*
X99974019Y-59635831D02*
X99967876Y-59638761D01*
X99967876Y-59638761D02*
X99961588Y-59641365D01*
X99961588Y-59641365D02*
X99955172Y-59643637D01*
X99955172Y-59643637D02*
X99948646Y-59645570D01*
X99948646Y-59645570D02*
X99942029Y-59647159D01*
X99942029Y-59647159D02*
X99935336Y-59648399D01*
X99935336Y-59648399D02*
X99928589Y-59649288D01*
X99928589Y-59649288D02*
X99921804Y-59649822D01*
X99921804Y-59649822D02*
X99915000Y-59650000D01*
X99915000Y-59650000D02*
X99450000Y-59650000D01*
X99450000Y-59650000D02*
X99450000Y-61350000D01*
X99450000Y-61350000D02*
X101150000Y-61350000D01*
X101150000Y-61350000D02*
X101150000Y-61350000D01*
G36*
X100555000Y-59520000D02*
G01*
X100555178Y-59526804D01*
X100555712Y-59533589D01*
X100556601Y-59540336D01*
X100557841Y-59547029D01*
X100559430Y-59553646D01*
X100561363Y-59560172D01*
X100563635Y-59566588D01*
X100566239Y-59572876D01*
X100569169Y-59579019D01*
X100572417Y-59585000D01*
X100575973Y-59590803D01*
X100579828Y-59596412D01*
X100583971Y-59601812D01*
X100588391Y-59606987D01*
X100593076Y-59611924D01*
X100598013Y-59616609D01*
X100603188Y-59621029D01*
X100608588Y-59625172D01*
X100614197Y-59629027D01*
X100620000Y-59632583D01*
X100625981Y-59635831D01*
X100632124Y-59638761D01*
X100638412Y-59641365D01*
X100644828Y-59643637D01*
X100651354Y-59645570D01*
X100657971Y-59647159D01*
X100664664Y-59648399D01*
X100671411Y-59649288D01*
X100678196Y-59649822D01*
X100685000Y-59650000D01*
X101150000Y-59650000D01*
X101150000Y-61350000D01*
X99450000Y-61350000D01*
X99450000Y-59650000D01*
X99915000Y-59650000D01*
X99921804Y-59649822D01*
X99928589Y-59649288D01*
X99935336Y-59648399D01*
X99942029Y-59647159D01*
X99948646Y-59645570D01*
X99955172Y-59643637D01*
X99961588Y-59641365D01*
X99967876Y-59638761D01*
X99974019Y-59635831D01*
X99980000Y-59632583D01*
X99985803Y-59629027D01*
X99991412Y-59625172D01*
X99996812Y-59621029D01*
X100001987Y-59616609D01*
X100006924Y-59611924D01*
X100011609Y-59606987D01*
X100016029Y-59601812D01*
X100020172Y-59596412D01*
X100024027Y-59590803D01*
X100027583Y-59585000D01*
X100030831Y-59579019D01*
X100033761Y-59572876D01*
X100036365Y-59566588D01*
X100038637Y-59560172D01*
X100040570Y-59553646D01*
X100042159Y-59547029D01*
X100043399Y-59540336D01*
X100044288Y-59533589D01*
X100044822Y-59526804D01*
X100045000Y-59520000D01*
X100045000Y-58530000D01*
X100555000Y-58530000D01*
X100555000Y-59520000D01*
G37*
X100555000Y-59520000D02*
X100555178Y-59526804D01*
X100555712Y-59533589D01*
X100556601Y-59540336D01*
X100557841Y-59547029D01*
X100559430Y-59553646D01*
X100561363Y-59560172D01*
X100563635Y-59566588D01*
X100566239Y-59572876D01*
X100569169Y-59579019D01*
X100572417Y-59585000D01*
X100575973Y-59590803D01*
X100579828Y-59596412D01*
X100583971Y-59601812D01*
X100588391Y-59606987D01*
X100593076Y-59611924D01*
X100598013Y-59616609D01*
X100603188Y-59621029D01*
X100608588Y-59625172D01*
X100614197Y-59629027D01*
X100620000Y-59632583D01*
X100625981Y-59635831D01*
X100632124Y-59638761D01*
X100638412Y-59641365D01*
X100644828Y-59643637D01*
X100651354Y-59645570D01*
X100657971Y-59647159D01*
X100664664Y-59648399D01*
X100671411Y-59649288D01*
X100678196Y-59649822D01*
X100685000Y-59650000D01*
X101150000Y-59650000D01*
X101150000Y-61350000D01*
X99450000Y-61350000D01*
X99450000Y-59650000D01*
X99915000Y-59650000D01*
X99921804Y-59649822D01*
X99928589Y-59649288D01*
X99935336Y-59648399D01*
X99942029Y-59647159D01*
X99948646Y-59645570D01*
X99955172Y-59643637D01*
X99961588Y-59641365D01*
X99967876Y-59638761D01*
X99974019Y-59635831D01*
X99980000Y-59632583D01*
X99985803Y-59629027D01*
X99991412Y-59625172D01*
X99996812Y-59621029D01*
X100001987Y-59616609D01*
X100006924Y-59611924D01*
X100011609Y-59606987D01*
X100016029Y-59601812D01*
X100020172Y-59596412D01*
X100024027Y-59590803D01*
X100027583Y-59585000D01*
X100030831Y-59579019D01*
X100033761Y-59572876D01*
X100036365Y-59566588D01*
X100038637Y-59560172D01*
X100040570Y-59553646D01*
X100042159Y-59547029D01*
X100043399Y-59540336D01*
X100044288Y-59533589D01*
X100044822Y-59526804D01*
X100045000Y-59520000D01*
X100045000Y-58530000D01*
X100555000Y-58530000D01*
X100555000Y-59520000D01*
%TO.C,LED*%
X98650000Y-61350000D02*
X98650000Y-59650000D01*
X98650000Y-59650000D02*
X98185000Y-59650000D01*
X98185000Y-59650000D02*
X98178196Y-59649822D01*
X98178196Y-59649822D02*
X98171411Y-59649288D01*
X98171411Y-59649288D02*
X98164664Y-59648399D01*
X98164664Y-59648399D02*
X98157971Y-59647159D01*
X98157971Y-59647159D02*
X98151354Y-59645570D01*
X98151354Y-59645570D02*
X98144828Y-59643637D01*
X98144828Y-59643637D02*
X98138412Y-59641365D01*
X98138412Y-59641365D02*
X98132124Y-59638761D01*
X98132124Y-59638761D02*
X98125981Y-59635831D01*
X98125981Y-59635831D02*
X98120000Y-59632583D01*
X98120000Y-59632583D02*
X98114197Y-59629027D01*
X98114197Y-59629027D02*
X98108588Y-59625172D01*
X98108588Y-59625172D02*
X98103188Y-59621029D01*
X98103188Y-59621029D02*
X98098013Y-59616609D01*
X98098013Y-59616609D02*
X98093076Y-59611924D01*
X98093076Y-59611924D02*
X98088391Y-59606987D01*
X98088391Y-59606987D02*
X98083971Y-59601812D01*
X98083971Y-59601812D02*
X98079828Y-59596412D01*
X98079828Y-59596412D02*
X98075973Y-59590803D01*
X98075973Y-59590803D02*
X98072417Y-59585000D01*
X98072417Y-59585000D02*
X98069169Y-59579019D01*
X98069169Y-59579019D02*
X98066239Y-59572876D01*
X98066239Y-59572876D02*
X98063635Y-59566588D01*
X98063635Y-59566588D02*
X98061363Y-59560172D01*
X98061363Y-59560172D02*
X98059430Y-59553646D01*
X98059430Y-59553646D02*
X98057841Y-59547029D01*
X98057841Y-59547029D02*
X98056601Y-59540336D01*
X98056601Y-59540336D02*
X98055712Y-59533589D01*
X98055712Y-59533589D02*
X98055178Y-59526804D01*
X98055178Y-59526804D02*
X98055000Y-59520000D01*
X98055000Y-59520000D02*
X98055000Y-58530000D01*
X98055000Y-58530000D02*
X97545000Y-58530000D01*
X97545000Y-58530000D02*
X97545000Y-59520000D01*
X97545000Y-59520000D02*
X97544822Y-59526804D01*
X97544822Y-59526804D02*
X97544288Y-59533589D01*
X97544288Y-59533589D02*
X97543399Y-59540336D01*
X97543399Y-59540336D02*
X97542159Y-59547029D01*
X97542159Y-59547029D02*
X97540570Y-59553646D01*
X97540570Y-59553646D02*
X97538637Y-59560172D01*
X97538637Y-59560172D02*
X97536365Y-59566588D01*
X97536365Y-59566588D02*
X97533761Y-59572876D01*
X97533761Y-59572876D02*
X97530831Y-59579019D01*
X97530831Y-59579019D02*
X97527583Y-59585000D01*
X97527583Y-59585000D02*
X97524027Y-59590803D01*
X97524027Y-59590803D02*
X97520172Y-59596412D01*
X97520172Y-59596412D02*
X97516029Y-59601812D01*
X97516029Y-59601812D02*
X97511609Y-59606987D01*
X97511609Y-59606987D02*
X97506924Y-59611924D01*
X97506924Y-59611924D02*
X97501987Y-59616609D01*
X97501987Y-59616609D02*
X97496812Y-59621029D01*
X97496812Y-59621029D02*
X97491412Y-59625172D01*
X97491412Y-59625172D02*
X97485803Y-59629027D01*
X97485803Y-59629027D02*
X97480000Y-59632583D01*
X97480000Y-59632583D02*
X97474019Y-59635831D01*
X97474019Y-59635831D02*
X97467876Y-59638761D01*
X97467876Y-59638761D02*
X97461588Y-59641365D01*
X97461588Y-59641365D02*
X97455172Y-59643637D01*
X97455172Y-59643637D02*
X97448646Y-59645570D01*
X97448646Y-59645570D02*
X97442029Y-59647159D01*
X97442029Y-59647159D02*
X97435336Y-59648399D01*
X97435336Y-59648399D02*
X97428589Y-59649288D01*
X97428589Y-59649288D02*
X97421804Y-59649822D01*
X97421804Y-59649822D02*
X97415000Y-59650000D01*
X97415000Y-59650000D02*
X96950000Y-59650000D01*
X96950000Y-59650000D02*
X96950000Y-61350000D01*
X96950000Y-61350000D02*
X98650000Y-61350000D01*
X98650000Y-61350000D02*
X98650000Y-61350000D01*
G36*
X98055000Y-59520000D02*
G01*
X98055178Y-59526804D01*
X98055712Y-59533589D01*
X98056601Y-59540336D01*
X98057841Y-59547029D01*
X98059430Y-59553646D01*
X98061363Y-59560172D01*
X98063635Y-59566588D01*
X98066239Y-59572876D01*
X98069169Y-59579019D01*
X98072417Y-59585000D01*
X98075973Y-59590803D01*
X98079828Y-59596412D01*
X98083971Y-59601812D01*
X98088391Y-59606987D01*
X98093076Y-59611924D01*
X98098013Y-59616609D01*
X98103188Y-59621029D01*
X98108588Y-59625172D01*
X98114197Y-59629027D01*
X98120000Y-59632583D01*
X98125981Y-59635831D01*
X98132124Y-59638761D01*
X98138412Y-59641365D01*
X98144828Y-59643637D01*
X98151354Y-59645570D01*
X98157971Y-59647159D01*
X98164664Y-59648399D01*
X98171411Y-59649288D01*
X98178196Y-59649822D01*
X98185000Y-59650000D01*
X98650000Y-59650000D01*
X98650000Y-61350000D01*
X96950000Y-61350000D01*
X96950000Y-59650000D01*
X97415000Y-59650000D01*
X97421804Y-59649822D01*
X97428589Y-59649288D01*
X97435336Y-59648399D01*
X97442029Y-59647159D01*
X97448646Y-59645570D01*
X97455172Y-59643637D01*
X97461588Y-59641365D01*
X97467876Y-59638761D01*
X97474019Y-59635831D01*
X97480000Y-59632583D01*
X97485803Y-59629027D01*
X97491412Y-59625172D01*
X97496812Y-59621029D01*
X97501987Y-59616609D01*
X97506924Y-59611924D01*
X97511609Y-59606987D01*
X97516029Y-59601812D01*
X97520172Y-59596412D01*
X97524027Y-59590803D01*
X97527583Y-59585000D01*
X97530831Y-59579019D01*
X97533761Y-59572876D01*
X97536365Y-59566588D01*
X97538637Y-59560172D01*
X97540570Y-59553646D01*
X97542159Y-59547029D01*
X97543399Y-59540336D01*
X97544288Y-59533589D01*
X97544822Y-59526804D01*
X97545000Y-59520000D01*
X97545000Y-58530000D01*
X98055000Y-58530000D01*
X98055000Y-59520000D01*
G37*
X98055000Y-59520000D02*
X98055178Y-59526804D01*
X98055712Y-59533589D01*
X98056601Y-59540336D01*
X98057841Y-59547029D01*
X98059430Y-59553646D01*
X98061363Y-59560172D01*
X98063635Y-59566588D01*
X98066239Y-59572876D01*
X98069169Y-59579019D01*
X98072417Y-59585000D01*
X98075973Y-59590803D01*
X98079828Y-59596412D01*
X98083971Y-59601812D01*
X98088391Y-59606987D01*
X98093076Y-59611924D01*
X98098013Y-59616609D01*
X98103188Y-59621029D01*
X98108588Y-59625172D01*
X98114197Y-59629027D01*
X98120000Y-59632583D01*
X98125981Y-59635831D01*
X98132124Y-59638761D01*
X98138412Y-59641365D01*
X98144828Y-59643637D01*
X98151354Y-59645570D01*
X98157971Y-59647159D01*
X98164664Y-59648399D01*
X98171411Y-59649288D01*
X98178196Y-59649822D01*
X98185000Y-59650000D01*
X98650000Y-59650000D01*
X98650000Y-61350000D01*
X96950000Y-61350000D01*
X96950000Y-59650000D01*
X97415000Y-59650000D01*
X97421804Y-59649822D01*
X97428589Y-59649288D01*
X97435336Y-59648399D01*
X97442029Y-59647159D01*
X97448646Y-59645570D01*
X97455172Y-59643637D01*
X97461588Y-59641365D01*
X97467876Y-59638761D01*
X97474019Y-59635831D01*
X97480000Y-59632583D01*
X97485803Y-59629027D01*
X97491412Y-59625172D01*
X97496812Y-59621029D01*
X97501987Y-59616609D01*
X97506924Y-59611924D01*
X97511609Y-59606987D01*
X97516029Y-59601812D01*
X97520172Y-59596412D01*
X97524027Y-59590803D01*
X97527583Y-59585000D01*
X97530831Y-59579019D01*
X97533761Y-59572876D01*
X97536365Y-59566588D01*
X97538637Y-59560172D01*
X97540570Y-59553646D01*
X97542159Y-59547029D01*
X97543399Y-59540336D01*
X97544288Y-59533589D01*
X97544822Y-59526804D01*
X97545000Y-59520000D01*
X97545000Y-58530000D01*
X98055000Y-58530000D01*
X98055000Y-59520000D01*
%TO.C,3.3V*%
X103650000Y-61350000D02*
X103650000Y-59650000D01*
X103650000Y-59650000D02*
X103185000Y-59650000D01*
X103185000Y-59650000D02*
X103178196Y-59649822D01*
X103178196Y-59649822D02*
X103171411Y-59649288D01*
X103171411Y-59649288D02*
X103164664Y-59648399D01*
X103164664Y-59648399D02*
X103157971Y-59647159D01*
X103157971Y-59647159D02*
X103151354Y-59645570D01*
X103151354Y-59645570D02*
X103144828Y-59643637D01*
X103144828Y-59643637D02*
X103138412Y-59641365D01*
X103138412Y-59641365D02*
X103132124Y-59638761D01*
X103132124Y-59638761D02*
X103125981Y-59635831D01*
X103125981Y-59635831D02*
X103120000Y-59632583D01*
X103120000Y-59632583D02*
X103114197Y-59629027D01*
X103114197Y-59629027D02*
X103108588Y-59625172D01*
X103108588Y-59625172D02*
X103103188Y-59621029D01*
X103103188Y-59621029D02*
X103098013Y-59616609D01*
X103098013Y-59616609D02*
X103093076Y-59611924D01*
X103093076Y-59611924D02*
X103088391Y-59606987D01*
X103088391Y-59606987D02*
X103083971Y-59601812D01*
X103083971Y-59601812D02*
X103079828Y-59596412D01*
X103079828Y-59596412D02*
X103075973Y-59590803D01*
X103075973Y-59590803D02*
X103072417Y-59585000D01*
X103072417Y-59585000D02*
X103069169Y-59579019D01*
X103069169Y-59579019D02*
X103066239Y-59572876D01*
X103066239Y-59572876D02*
X103063635Y-59566588D01*
X103063635Y-59566588D02*
X103061363Y-59560172D01*
X103061363Y-59560172D02*
X103059430Y-59553646D01*
X103059430Y-59553646D02*
X103057841Y-59547029D01*
X103057841Y-59547029D02*
X103056601Y-59540336D01*
X103056601Y-59540336D02*
X103055712Y-59533589D01*
X103055712Y-59533589D02*
X103055178Y-59526804D01*
X103055178Y-59526804D02*
X103055000Y-59520000D01*
X103055000Y-59520000D02*
X103055000Y-58530000D01*
X103055000Y-58530000D02*
X102545000Y-58530000D01*
X102545000Y-58530000D02*
X102545000Y-59520000D01*
X102545000Y-59520000D02*
X102544822Y-59526804D01*
X102544822Y-59526804D02*
X102544288Y-59533589D01*
X102544288Y-59533589D02*
X102543399Y-59540336D01*
X102543399Y-59540336D02*
X102542159Y-59547029D01*
X102542159Y-59547029D02*
X102540570Y-59553646D01*
X102540570Y-59553646D02*
X102538637Y-59560172D01*
X102538637Y-59560172D02*
X102536365Y-59566588D01*
X102536365Y-59566588D02*
X102533761Y-59572876D01*
X102533761Y-59572876D02*
X102530831Y-59579019D01*
X102530831Y-59579019D02*
X102527583Y-59585000D01*
X102527583Y-59585000D02*
X102524027Y-59590803D01*
X102524027Y-59590803D02*
X102520172Y-59596412D01*
X102520172Y-59596412D02*
X102516029Y-59601812D01*
X102516029Y-59601812D02*
X102511609Y-59606987D01*
X102511609Y-59606987D02*
X102506924Y-59611924D01*
X102506924Y-59611924D02*
X102501987Y-59616609D01*
X102501987Y-59616609D02*
X102496812Y-59621029D01*
X102496812Y-59621029D02*
X102491412Y-59625172D01*
X102491412Y-59625172D02*
X102485803Y-59629027D01*
X102485803Y-59629027D02*
X102480000Y-59632583D01*
X102480000Y-59632583D02*
X102474019Y-59635831D01*
X102474019Y-59635831D02*
X102467876Y-59638761D01*
X102467876Y-59638761D02*
X102461588Y-59641365D01*
X102461588Y-59641365D02*
X102455172Y-59643637D01*
X102455172Y-59643637D02*
X102448646Y-59645570D01*
X102448646Y-59645570D02*
X102442029Y-59647159D01*
X102442029Y-59647159D02*
X102435336Y-59648399D01*
X102435336Y-59648399D02*
X102428589Y-59649288D01*
X102428589Y-59649288D02*
X102421804Y-59649822D01*
X102421804Y-59649822D02*
X102415000Y-59650000D01*
X102415000Y-59650000D02*
X101950000Y-59650000D01*
X101950000Y-59650000D02*
X101950000Y-61350000D01*
X101950000Y-61350000D02*
X103650000Y-61350000D01*
X103650000Y-61350000D02*
X103650000Y-61350000D01*
G36*
X103055000Y-59520000D02*
G01*
X103055178Y-59526804D01*
X103055712Y-59533589D01*
X103056601Y-59540336D01*
X103057841Y-59547029D01*
X103059430Y-59553646D01*
X103061363Y-59560172D01*
X103063635Y-59566588D01*
X103066239Y-59572876D01*
X103069169Y-59579019D01*
X103072417Y-59585000D01*
X103075973Y-59590803D01*
X103079828Y-59596412D01*
X103083971Y-59601812D01*
X103088391Y-59606987D01*
X103093076Y-59611924D01*
X103098013Y-59616609D01*
X103103188Y-59621029D01*
X103108588Y-59625172D01*
X103114197Y-59629027D01*
X103120000Y-59632583D01*
X103125981Y-59635831D01*
X103132124Y-59638761D01*
X103138412Y-59641365D01*
X103144828Y-59643637D01*
X103151354Y-59645570D01*
X103157971Y-59647159D01*
X103164664Y-59648399D01*
X103171411Y-59649288D01*
X103178196Y-59649822D01*
X103185000Y-59650000D01*
X103650000Y-59650000D01*
X103650000Y-61350000D01*
X101950000Y-61350000D01*
X101950000Y-59650000D01*
X102415000Y-59650000D01*
X102421804Y-59649822D01*
X102428589Y-59649288D01*
X102435336Y-59648399D01*
X102442029Y-59647159D01*
X102448646Y-59645570D01*
X102455172Y-59643637D01*
X102461588Y-59641365D01*
X102467876Y-59638761D01*
X102474019Y-59635831D01*
X102480000Y-59632583D01*
X102485803Y-59629027D01*
X102491412Y-59625172D01*
X102496812Y-59621029D01*
X102501987Y-59616609D01*
X102506924Y-59611924D01*
X102511609Y-59606987D01*
X102516029Y-59601812D01*
X102520172Y-59596412D01*
X102524027Y-59590803D01*
X102527583Y-59585000D01*
X102530831Y-59579019D01*
X102533761Y-59572876D01*
X102536365Y-59566588D01*
X102538637Y-59560172D01*
X102540570Y-59553646D01*
X102542159Y-59547029D01*
X102543399Y-59540336D01*
X102544288Y-59533589D01*
X102544822Y-59526804D01*
X102545000Y-59520000D01*
X102545000Y-58530000D01*
X103055000Y-58530000D01*
X103055000Y-59520000D01*
G37*
X103055000Y-59520000D02*
X103055178Y-59526804D01*
X103055712Y-59533589D01*
X103056601Y-59540336D01*
X103057841Y-59547029D01*
X103059430Y-59553646D01*
X103061363Y-59560172D01*
X103063635Y-59566588D01*
X103066239Y-59572876D01*
X103069169Y-59579019D01*
X103072417Y-59585000D01*
X103075973Y-59590803D01*
X103079828Y-59596412D01*
X103083971Y-59601812D01*
X103088391Y-59606987D01*
X103093076Y-59611924D01*
X103098013Y-59616609D01*
X103103188Y-59621029D01*
X103108588Y-59625172D01*
X103114197Y-59629027D01*
X103120000Y-59632583D01*
X103125981Y-59635831D01*
X103132124Y-59638761D01*
X103138412Y-59641365D01*
X103144828Y-59643637D01*
X103151354Y-59645570D01*
X103157971Y-59647159D01*
X103164664Y-59648399D01*
X103171411Y-59649288D01*
X103178196Y-59649822D01*
X103185000Y-59650000D01*
X103650000Y-59650000D01*
X103650000Y-61350000D01*
X101950000Y-61350000D01*
X101950000Y-59650000D01*
X102415000Y-59650000D01*
X102421804Y-59649822D01*
X102428589Y-59649288D01*
X102435336Y-59648399D01*
X102442029Y-59647159D01*
X102448646Y-59645570D01*
X102455172Y-59643637D01*
X102461588Y-59641365D01*
X102467876Y-59638761D01*
X102474019Y-59635831D01*
X102480000Y-59632583D01*
X102485803Y-59629027D01*
X102491412Y-59625172D01*
X102496812Y-59621029D01*
X102501987Y-59616609D01*
X102506924Y-59611924D01*
X102511609Y-59606987D01*
X102516029Y-59601812D01*
X102520172Y-59596412D01*
X102524027Y-59590803D01*
X102527583Y-59585000D01*
X102530831Y-59579019D01*
X102533761Y-59572876D01*
X102536365Y-59566588D01*
X102538637Y-59560172D01*
X102540570Y-59553646D01*
X102542159Y-59547029D01*
X102543399Y-59540336D01*
X102544288Y-59533589D01*
X102544822Y-59526804D01*
X102545000Y-59520000D01*
X102545000Y-58530000D01*
X103055000Y-58530000D01*
X103055000Y-59520000D01*
%TO.C,INT*%
X106150000Y-61350000D02*
X106150000Y-59650000D01*
X106150000Y-59650000D02*
X105685000Y-59650000D01*
X105685000Y-59650000D02*
X105678196Y-59649822D01*
X105678196Y-59649822D02*
X105671411Y-59649288D01*
X105671411Y-59649288D02*
X105664664Y-59648399D01*
X105664664Y-59648399D02*
X105657971Y-59647159D01*
X105657971Y-59647159D02*
X105651354Y-59645570D01*
X105651354Y-59645570D02*
X105644828Y-59643637D01*
X105644828Y-59643637D02*
X105638412Y-59641365D01*
X105638412Y-59641365D02*
X105632124Y-59638761D01*
X105632124Y-59638761D02*
X105625981Y-59635831D01*
X105625981Y-59635831D02*
X105620000Y-59632583D01*
X105620000Y-59632583D02*
X105614197Y-59629027D01*
X105614197Y-59629027D02*
X105608588Y-59625172D01*
X105608588Y-59625172D02*
X105603188Y-59621029D01*
X105603188Y-59621029D02*
X105598013Y-59616609D01*
X105598013Y-59616609D02*
X105593076Y-59611924D01*
X105593076Y-59611924D02*
X105588391Y-59606987D01*
X105588391Y-59606987D02*
X105583971Y-59601812D01*
X105583971Y-59601812D02*
X105579828Y-59596412D01*
X105579828Y-59596412D02*
X105575973Y-59590803D01*
X105575973Y-59590803D02*
X105572417Y-59585000D01*
X105572417Y-59585000D02*
X105569169Y-59579019D01*
X105569169Y-59579019D02*
X105566239Y-59572876D01*
X105566239Y-59572876D02*
X105563635Y-59566588D01*
X105563635Y-59566588D02*
X105561363Y-59560172D01*
X105561363Y-59560172D02*
X105559430Y-59553646D01*
X105559430Y-59553646D02*
X105557841Y-59547029D01*
X105557841Y-59547029D02*
X105556601Y-59540336D01*
X105556601Y-59540336D02*
X105555712Y-59533589D01*
X105555712Y-59533589D02*
X105555178Y-59526804D01*
X105555178Y-59526804D02*
X105555000Y-59520000D01*
X105555000Y-59520000D02*
X105555000Y-58530000D01*
X105555000Y-58530000D02*
X105045000Y-58530000D01*
X105045000Y-58530000D02*
X105045000Y-59520000D01*
X105045000Y-59520000D02*
X105044822Y-59526804D01*
X105044822Y-59526804D02*
X105044288Y-59533589D01*
X105044288Y-59533589D02*
X105043399Y-59540336D01*
X105043399Y-59540336D02*
X105042159Y-59547029D01*
X105042159Y-59547029D02*
X105040570Y-59553646D01*
X105040570Y-59553646D02*
X105038637Y-59560172D01*
X105038637Y-59560172D02*
X105036365Y-59566588D01*
X105036365Y-59566588D02*
X105033761Y-59572876D01*
X105033761Y-59572876D02*
X105030831Y-59579019D01*
X105030831Y-59579019D02*
X105027583Y-59585000D01*
X105027583Y-59585000D02*
X105024027Y-59590803D01*
X105024027Y-59590803D02*
X105020172Y-59596412D01*
X105020172Y-59596412D02*
X105016029Y-59601812D01*
X105016029Y-59601812D02*
X105011609Y-59606987D01*
X105011609Y-59606987D02*
X105006924Y-59611924D01*
X105006924Y-59611924D02*
X105001987Y-59616609D01*
X105001987Y-59616609D02*
X104996812Y-59621029D01*
X104996812Y-59621029D02*
X104991412Y-59625172D01*
X104991412Y-59625172D02*
X104985803Y-59629027D01*
X104985803Y-59629027D02*
X104980000Y-59632583D01*
X104980000Y-59632583D02*
X104974019Y-59635831D01*
X104974019Y-59635831D02*
X104967876Y-59638761D01*
X104967876Y-59638761D02*
X104961588Y-59641365D01*
X104961588Y-59641365D02*
X104955172Y-59643637D01*
X104955172Y-59643637D02*
X104948646Y-59645570D01*
X104948646Y-59645570D02*
X104942029Y-59647159D01*
X104942029Y-59647159D02*
X104935336Y-59648399D01*
X104935336Y-59648399D02*
X104928589Y-59649288D01*
X104928589Y-59649288D02*
X104921804Y-59649822D01*
X104921804Y-59649822D02*
X104915000Y-59650000D01*
X104915000Y-59650000D02*
X104450000Y-59650000D01*
X104450000Y-59650000D02*
X104450000Y-61350000D01*
X104450000Y-61350000D02*
X106150000Y-61350000D01*
X106150000Y-61350000D02*
X106150000Y-61350000D01*
G36*
X105555000Y-59520000D02*
G01*
X105555178Y-59526804D01*
X105555712Y-59533589D01*
X105556601Y-59540336D01*
X105557841Y-59547029D01*
X105559430Y-59553646D01*
X105561363Y-59560172D01*
X105563635Y-59566588D01*
X105566239Y-59572876D01*
X105569169Y-59579019D01*
X105572417Y-59585000D01*
X105575973Y-59590803D01*
X105579828Y-59596412D01*
X105583971Y-59601812D01*
X105588391Y-59606987D01*
X105593076Y-59611924D01*
X105598013Y-59616609D01*
X105603188Y-59621029D01*
X105608588Y-59625172D01*
X105614197Y-59629027D01*
X105620000Y-59632583D01*
X105625981Y-59635831D01*
X105632124Y-59638761D01*
X105638412Y-59641365D01*
X105644828Y-59643637D01*
X105651354Y-59645570D01*
X105657971Y-59647159D01*
X105664664Y-59648399D01*
X105671411Y-59649288D01*
X105678196Y-59649822D01*
X105685000Y-59650000D01*
X106150000Y-59650000D01*
X106150000Y-61350000D01*
X104450000Y-61350000D01*
X104450000Y-59650000D01*
X104915000Y-59650000D01*
X104921804Y-59649822D01*
X104928589Y-59649288D01*
X104935336Y-59648399D01*
X104942029Y-59647159D01*
X104948646Y-59645570D01*
X104955172Y-59643637D01*
X104961588Y-59641365D01*
X104967876Y-59638761D01*
X104974019Y-59635831D01*
X104980000Y-59632583D01*
X104985803Y-59629027D01*
X104991412Y-59625172D01*
X104996812Y-59621029D01*
X105001987Y-59616609D01*
X105006924Y-59611924D01*
X105011609Y-59606987D01*
X105016029Y-59601812D01*
X105020172Y-59596412D01*
X105024027Y-59590803D01*
X105027583Y-59585000D01*
X105030831Y-59579019D01*
X105033761Y-59572876D01*
X105036365Y-59566588D01*
X105038637Y-59560172D01*
X105040570Y-59553646D01*
X105042159Y-59547029D01*
X105043399Y-59540336D01*
X105044288Y-59533589D01*
X105044822Y-59526804D01*
X105045000Y-59520000D01*
X105045000Y-58530000D01*
X105555000Y-58530000D01*
X105555000Y-59520000D01*
G37*
X105555000Y-59520000D02*
X105555178Y-59526804D01*
X105555712Y-59533589D01*
X105556601Y-59540336D01*
X105557841Y-59547029D01*
X105559430Y-59553646D01*
X105561363Y-59560172D01*
X105563635Y-59566588D01*
X105566239Y-59572876D01*
X105569169Y-59579019D01*
X105572417Y-59585000D01*
X105575973Y-59590803D01*
X105579828Y-59596412D01*
X105583971Y-59601812D01*
X105588391Y-59606987D01*
X105593076Y-59611924D01*
X105598013Y-59616609D01*
X105603188Y-59621029D01*
X105608588Y-59625172D01*
X105614197Y-59629027D01*
X105620000Y-59632583D01*
X105625981Y-59635831D01*
X105632124Y-59638761D01*
X105638412Y-59641365D01*
X105644828Y-59643637D01*
X105651354Y-59645570D01*
X105657971Y-59647159D01*
X105664664Y-59648399D01*
X105671411Y-59649288D01*
X105678196Y-59649822D01*
X105685000Y-59650000D01*
X106150000Y-59650000D01*
X106150000Y-61350000D01*
X104450000Y-61350000D01*
X104450000Y-59650000D01*
X104915000Y-59650000D01*
X104921804Y-59649822D01*
X104928589Y-59649288D01*
X104935336Y-59648399D01*
X104942029Y-59647159D01*
X104948646Y-59645570D01*
X104955172Y-59643637D01*
X104961588Y-59641365D01*
X104967876Y-59638761D01*
X104974019Y-59635831D01*
X104980000Y-59632583D01*
X104985803Y-59629027D01*
X104991412Y-59625172D01*
X104996812Y-59621029D01*
X105001987Y-59616609D01*
X105006924Y-59611924D01*
X105011609Y-59606987D01*
X105016029Y-59601812D01*
X105020172Y-59596412D01*
X105024027Y-59590803D01*
X105027583Y-59585000D01*
X105030831Y-59579019D01*
X105033761Y-59572876D01*
X105036365Y-59566588D01*
X105038637Y-59560172D01*
X105040570Y-59553646D01*
X105042159Y-59547029D01*
X105043399Y-59540336D01*
X105044288Y-59533589D01*
X105044822Y-59526804D01*
X105045000Y-59520000D01*
X105045000Y-58530000D01*
X105555000Y-58530000D01*
X105555000Y-59520000D01*
%TO.C,R-IN*%
X111150000Y-61350000D02*
X111150000Y-59650000D01*
X111150000Y-59650000D02*
X110685000Y-59650000D01*
X110685000Y-59650000D02*
X110678196Y-59649822D01*
X110678196Y-59649822D02*
X110671411Y-59649288D01*
X110671411Y-59649288D02*
X110664664Y-59648399D01*
X110664664Y-59648399D02*
X110657971Y-59647159D01*
X110657971Y-59647159D02*
X110651354Y-59645570D01*
X110651354Y-59645570D02*
X110644828Y-59643637D01*
X110644828Y-59643637D02*
X110638412Y-59641365D01*
X110638412Y-59641365D02*
X110632124Y-59638761D01*
X110632124Y-59638761D02*
X110625981Y-59635831D01*
X110625981Y-59635831D02*
X110620000Y-59632583D01*
X110620000Y-59632583D02*
X110614197Y-59629027D01*
X110614197Y-59629027D02*
X110608588Y-59625172D01*
X110608588Y-59625172D02*
X110603188Y-59621029D01*
X110603188Y-59621029D02*
X110598013Y-59616609D01*
X110598013Y-59616609D02*
X110593076Y-59611924D01*
X110593076Y-59611924D02*
X110588391Y-59606987D01*
X110588391Y-59606987D02*
X110583971Y-59601812D01*
X110583971Y-59601812D02*
X110579828Y-59596412D01*
X110579828Y-59596412D02*
X110575973Y-59590803D01*
X110575973Y-59590803D02*
X110572417Y-59585000D01*
X110572417Y-59585000D02*
X110569169Y-59579019D01*
X110569169Y-59579019D02*
X110566239Y-59572876D01*
X110566239Y-59572876D02*
X110563635Y-59566588D01*
X110563635Y-59566588D02*
X110561363Y-59560172D01*
X110561363Y-59560172D02*
X110559430Y-59553646D01*
X110559430Y-59553646D02*
X110557841Y-59547029D01*
X110557841Y-59547029D02*
X110556601Y-59540336D01*
X110556601Y-59540336D02*
X110555712Y-59533589D01*
X110555712Y-59533589D02*
X110555178Y-59526804D01*
X110555178Y-59526804D02*
X110555000Y-59520000D01*
X110555000Y-59520000D02*
X110555000Y-58530000D01*
X110555000Y-58530000D02*
X110045000Y-58530000D01*
X110045000Y-58530000D02*
X110045000Y-59520000D01*
X110045000Y-59520000D02*
X110044822Y-59526804D01*
X110044822Y-59526804D02*
X110044288Y-59533589D01*
X110044288Y-59533589D02*
X110043399Y-59540336D01*
X110043399Y-59540336D02*
X110042159Y-59547029D01*
X110042159Y-59547029D02*
X110040570Y-59553646D01*
X110040570Y-59553646D02*
X110038637Y-59560172D01*
X110038637Y-59560172D02*
X110036365Y-59566588D01*
X110036365Y-59566588D02*
X110033761Y-59572876D01*
X110033761Y-59572876D02*
X110030831Y-59579019D01*
X110030831Y-59579019D02*
X110027583Y-59585000D01*
X110027583Y-59585000D02*
X110024027Y-59590803D01*
X110024027Y-59590803D02*
X110020172Y-59596412D01*
X110020172Y-59596412D02*
X110016029Y-59601812D01*
X110016029Y-59601812D02*
X110011609Y-59606987D01*
X110011609Y-59606987D02*
X110006924Y-59611924D01*
X110006924Y-59611924D02*
X110001987Y-59616609D01*
X110001987Y-59616609D02*
X109996812Y-59621029D01*
X109996812Y-59621029D02*
X109991412Y-59625172D01*
X109991412Y-59625172D02*
X109985803Y-59629027D01*
X109985803Y-59629027D02*
X109980000Y-59632583D01*
X109980000Y-59632583D02*
X109974019Y-59635831D01*
X109974019Y-59635831D02*
X109967876Y-59638761D01*
X109967876Y-59638761D02*
X109961588Y-59641365D01*
X109961588Y-59641365D02*
X109955172Y-59643637D01*
X109955172Y-59643637D02*
X109948646Y-59645570D01*
X109948646Y-59645570D02*
X109942029Y-59647159D01*
X109942029Y-59647159D02*
X109935336Y-59648399D01*
X109935336Y-59648399D02*
X109928589Y-59649288D01*
X109928589Y-59649288D02*
X109921804Y-59649822D01*
X109921804Y-59649822D02*
X109915000Y-59650000D01*
X109915000Y-59650000D02*
X109450000Y-59650000D01*
X109450000Y-59650000D02*
X109450000Y-61350000D01*
X109450000Y-61350000D02*
X111150000Y-61350000D01*
X111150000Y-61350000D02*
X111150000Y-61350000D01*
G36*
X110555000Y-59520000D02*
G01*
X110555178Y-59526804D01*
X110555712Y-59533589D01*
X110556601Y-59540336D01*
X110557841Y-59547029D01*
X110559430Y-59553646D01*
X110561363Y-59560172D01*
X110563635Y-59566588D01*
X110566239Y-59572876D01*
X110569169Y-59579019D01*
X110572417Y-59585000D01*
X110575973Y-59590803D01*
X110579828Y-59596412D01*
X110583971Y-59601812D01*
X110588391Y-59606987D01*
X110593076Y-59611924D01*
X110598013Y-59616609D01*
X110603188Y-59621029D01*
X110608588Y-59625172D01*
X110614197Y-59629027D01*
X110620000Y-59632583D01*
X110625981Y-59635831D01*
X110632124Y-59638761D01*
X110638412Y-59641365D01*
X110644828Y-59643637D01*
X110651354Y-59645570D01*
X110657971Y-59647159D01*
X110664664Y-59648399D01*
X110671411Y-59649288D01*
X110678196Y-59649822D01*
X110685000Y-59650000D01*
X111150000Y-59650000D01*
X111150000Y-61350000D01*
X109450000Y-61350000D01*
X109450000Y-59650000D01*
X109915000Y-59650000D01*
X109921804Y-59649822D01*
X109928589Y-59649288D01*
X109935336Y-59648399D01*
X109942029Y-59647159D01*
X109948646Y-59645570D01*
X109955172Y-59643637D01*
X109961588Y-59641365D01*
X109967876Y-59638761D01*
X109974019Y-59635831D01*
X109980000Y-59632583D01*
X109985803Y-59629027D01*
X109991412Y-59625172D01*
X109996812Y-59621029D01*
X110001987Y-59616609D01*
X110006924Y-59611924D01*
X110011609Y-59606987D01*
X110016029Y-59601812D01*
X110020172Y-59596412D01*
X110024027Y-59590803D01*
X110027583Y-59585000D01*
X110030831Y-59579019D01*
X110033761Y-59572876D01*
X110036365Y-59566588D01*
X110038637Y-59560172D01*
X110040570Y-59553646D01*
X110042159Y-59547029D01*
X110043399Y-59540336D01*
X110044288Y-59533589D01*
X110044822Y-59526804D01*
X110045000Y-59520000D01*
X110045000Y-58530000D01*
X110555000Y-58530000D01*
X110555000Y-59520000D01*
G37*
X110555000Y-59520000D02*
X110555178Y-59526804D01*
X110555712Y-59533589D01*
X110556601Y-59540336D01*
X110557841Y-59547029D01*
X110559430Y-59553646D01*
X110561363Y-59560172D01*
X110563635Y-59566588D01*
X110566239Y-59572876D01*
X110569169Y-59579019D01*
X110572417Y-59585000D01*
X110575973Y-59590803D01*
X110579828Y-59596412D01*
X110583971Y-59601812D01*
X110588391Y-59606987D01*
X110593076Y-59611924D01*
X110598013Y-59616609D01*
X110603188Y-59621029D01*
X110608588Y-59625172D01*
X110614197Y-59629027D01*
X110620000Y-59632583D01*
X110625981Y-59635831D01*
X110632124Y-59638761D01*
X110638412Y-59641365D01*
X110644828Y-59643637D01*
X110651354Y-59645570D01*
X110657971Y-59647159D01*
X110664664Y-59648399D01*
X110671411Y-59649288D01*
X110678196Y-59649822D01*
X110685000Y-59650000D01*
X111150000Y-59650000D01*
X111150000Y-61350000D01*
X109450000Y-61350000D01*
X109450000Y-59650000D01*
X109915000Y-59650000D01*
X109921804Y-59649822D01*
X109928589Y-59649288D01*
X109935336Y-59648399D01*
X109942029Y-59647159D01*
X109948646Y-59645570D01*
X109955172Y-59643637D01*
X109961588Y-59641365D01*
X109967876Y-59638761D01*
X109974019Y-59635831D01*
X109980000Y-59632583D01*
X109985803Y-59629027D01*
X109991412Y-59625172D01*
X109996812Y-59621029D01*
X110001987Y-59616609D01*
X110006924Y-59611924D01*
X110011609Y-59606987D01*
X110016029Y-59601812D01*
X110020172Y-59596412D01*
X110024027Y-59590803D01*
X110027583Y-59585000D01*
X110030831Y-59579019D01*
X110033761Y-59572876D01*
X110036365Y-59566588D01*
X110038637Y-59560172D01*
X110040570Y-59553646D01*
X110042159Y-59547029D01*
X110043399Y-59540336D01*
X110044288Y-59533589D01*
X110044822Y-59526804D01*
X110045000Y-59520000D01*
X110045000Y-58530000D01*
X110555000Y-58530000D01*
X110555000Y-59520000D01*
%TO.C,5V*%
X108650000Y-61350000D02*
X108650000Y-59650000D01*
X108650000Y-59650000D02*
X108185000Y-59650000D01*
X108185000Y-59650000D02*
X108178196Y-59649822D01*
X108178196Y-59649822D02*
X108171411Y-59649288D01*
X108171411Y-59649288D02*
X108164664Y-59648399D01*
X108164664Y-59648399D02*
X108157971Y-59647159D01*
X108157971Y-59647159D02*
X108151354Y-59645570D01*
X108151354Y-59645570D02*
X108144828Y-59643637D01*
X108144828Y-59643637D02*
X108138412Y-59641365D01*
X108138412Y-59641365D02*
X108132124Y-59638761D01*
X108132124Y-59638761D02*
X108125981Y-59635831D01*
X108125981Y-59635831D02*
X108120000Y-59632583D01*
X108120000Y-59632583D02*
X108114197Y-59629027D01*
X108114197Y-59629027D02*
X108108588Y-59625172D01*
X108108588Y-59625172D02*
X108103188Y-59621029D01*
X108103188Y-59621029D02*
X108098013Y-59616609D01*
X108098013Y-59616609D02*
X108093076Y-59611924D01*
X108093076Y-59611924D02*
X108088391Y-59606987D01*
X108088391Y-59606987D02*
X108083971Y-59601812D01*
X108083971Y-59601812D02*
X108079828Y-59596412D01*
X108079828Y-59596412D02*
X108075973Y-59590803D01*
X108075973Y-59590803D02*
X108072417Y-59585000D01*
X108072417Y-59585000D02*
X108069169Y-59579019D01*
X108069169Y-59579019D02*
X108066239Y-59572876D01*
X108066239Y-59572876D02*
X108063635Y-59566588D01*
X108063635Y-59566588D02*
X108061363Y-59560172D01*
X108061363Y-59560172D02*
X108059430Y-59553646D01*
X108059430Y-59553646D02*
X108057841Y-59547029D01*
X108057841Y-59547029D02*
X108056601Y-59540336D01*
X108056601Y-59540336D02*
X108055712Y-59533589D01*
X108055712Y-59533589D02*
X108055178Y-59526804D01*
X108055178Y-59526804D02*
X108055000Y-59520000D01*
X108055000Y-59520000D02*
X108055000Y-58530000D01*
X108055000Y-58530000D02*
X107545000Y-58530000D01*
X107545000Y-58530000D02*
X107545000Y-59520000D01*
X107545000Y-59520000D02*
X107544822Y-59526804D01*
X107544822Y-59526804D02*
X107544288Y-59533589D01*
X107544288Y-59533589D02*
X107543399Y-59540336D01*
X107543399Y-59540336D02*
X107542159Y-59547029D01*
X107542159Y-59547029D02*
X107540570Y-59553646D01*
X107540570Y-59553646D02*
X107538637Y-59560172D01*
X107538637Y-59560172D02*
X107536365Y-59566588D01*
X107536365Y-59566588D02*
X107533761Y-59572876D01*
X107533761Y-59572876D02*
X107530831Y-59579019D01*
X107530831Y-59579019D02*
X107527583Y-59585000D01*
X107527583Y-59585000D02*
X107524027Y-59590803D01*
X107524027Y-59590803D02*
X107520172Y-59596412D01*
X107520172Y-59596412D02*
X107516029Y-59601812D01*
X107516029Y-59601812D02*
X107511609Y-59606987D01*
X107511609Y-59606987D02*
X107506924Y-59611924D01*
X107506924Y-59611924D02*
X107501987Y-59616609D01*
X107501987Y-59616609D02*
X107496812Y-59621029D01*
X107496812Y-59621029D02*
X107491412Y-59625172D01*
X107491412Y-59625172D02*
X107485803Y-59629027D01*
X107485803Y-59629027D02*
X107480000Y-59632583D01*
X107480000Y-59632583D02*
X107474019Y-59635831D01*
X107474019Y-59635831D02*
X107467876Y-59638761D01*
X107467876Y-59638761D02*
X107461588Y-59641365D01*
X107461588Y-59641365D02*
X107455172Y-59643637D01*
X107455172Y-59643637D02*
X107448646Y-59645570D01*
X107448646Y-59645570D02*
X107442029Y-59647159D01*
X107442029Y-59647159D02*
X107435336Y-59648399D01*
X107435336Y-59648399D02*
X107428589Y-59649288D01*
X107428589Y-59649288D02*
X107421804Y-59649822D01*
X107421804Y-59649822D02*
X107415000Y-59650000D01*
X107415000Y-59650000D02*
X106950000Y-59650000D01*
X106950000Y-59650000D02*
X106950000Y-61350000D01*
X106950000Y-61350000D02*
X108650000Y-61350000D01*
X108650000Y-61350000D02*
X108650000Y-61350000D01*
G36*
X108055000Y-59520000D02*
G01*
X108055178Y-59526804D01*
X108055712Y-59533589D01*
X108056601Y-59540336D01*
X108057841Y-59547029D01*
X108059430Y-59553646D01*
X108061363Y-59560172D01*
X108063635Y-59566588D01*
X108066239Y-59572876D01*
X108069169Y-59579019D01*
X108072417Y-59585000D01*
X108075973Y-59590803D01*
X108079828Y-59596412D01*
X108083971Y-59601812D01*
X108088391Y-59606987D01*
X108093076Y-59611924D01*
X108098013Y-59616609D01*
X108103188Y-59621029D01*
X108108588Y-59625172D01*
X108114197Y-59629027D01*
X108120000Y-59632583D01*
X108125981Y-59635831D01*
X108132124Y-59638761D01*
X108138412Y-59641365D01*
X108144828Y-59643637D01*
X108151354Y-59645570D01*
X108157971Y-59647159D01*
X108164664Y-59648399D01*
X108171411Y-59649288D01*
X108178196Y-59649822D01*
X108185000Y-59650000D01*
X108650000Y-59650000D01*
X108650000Y-61350000D01*
X106950000Y-61350000D01*
X106950000Y-59650000D01*
X107415000Y-59650000D01*
X107421804Y-59649822D01*
X107428589Y-59649288D01*
X107435336Y-59648399D01*
X107442029Y-59647159D01*
X107448646Y-59645570D01*
X107455172Y-59643637D01*
X107461588Y-59641365D01*
X107467876Y-59638761D01*
X107474019Y-59635831D01*
X107480000Y-59632583D01*
X107485803Y-59629027D01*
X107491412Y-59625172D01*
X107496812Y-59621029D01*
X107501987Y-59616609D01*
X107506924Y-59611924D01*
X107511609Y-59606987D01*
X107516029Y-59601812D01*
X107520172Y-59596412D01*
X107524027Y-59590803D01*
X107527583Y-59585000D01*
X107530831Y-59579019D01*
X107533761Y-59572876D01*
X107536365Y-59566588D01*
X107538637Y-59560172D01*
X107540570Y-59553646D01*
X107542159Y-59547029D01*
X107543399Y-59540336D01*
X107544288Y-59533589D01*
X107544822Y-59526804D01*
X107545000Y-59520000D01*
X107545000Y-58530000D01*
X108055000Y-58530000D01*
X108055000Y-59520000D01*
G37*
X108055000Y-59520000D02*
X108055178Y-59526804D01*
X108055712Y-59533589D01*
X108056601Y-59540336D01*
X108057841Y-59547029D01*
X108059430Y-59553646D01*
X108061363Y-59560172D01*
X108063635Y-59566588D01*
X108066239Y-59572876D01*
X108069169Y-59579019D01*
X108072417Y-59585000D01*
X108075973Y-59590803D01*
X108079828Y-59596412D01*
X108083971Y-59601812D01*
X108088391Y-59606987D01*
X108093076Y-59611924D01*
X108098013Y-59616609D01*
X108103188Y-59621029D01*
X108108588Y-59625172D01*
X108114197Y-59629027D01*
X108120000Y-59632583D01*
X108125981Y-59635831D01*
X108132124Y-59638761D01*
X108138412Y-59641365D01*
X108144828Y-59643637D01*
X108151354Y-59645570D01*
X108157971Y-59647159D01*
X108164664Y-59648399D01*
X108171411Y-59649288D01*
X108178196Y-59649822D01*
X108185000Y-59650000D01*
X108650000Y-59650000D01*
X108650000Y-61350000D01*
X106950000Y-61350000D01*
X106950000Y-59650000D01*
X107415000Y-59650000D01*
X107421804Y-59649822D01*
X107428589Y-59649288D01*
X107435336Y-59648399D01*
X107442029Y-59647159D01*
X107448646Y-59645570D01*
X107455172Y-59643637D01*
X107461588Y-59641365D01*
X107467876Y-59638761D01*
X107474019Y-59635831D01*
X107480000Y-59632583D01*
X107485803Y-59629027D01*
X107491412Y-59625172D01*
X107496812Y-59621029D01*
X107501987Y-59616609D01*
X107506924Y-59611924D01*
X107511609Y-59606987D01*
X107516029Y-59601812D01*
X107520172Y-59596412D01*
X107524027Y-59590803D01*
X107527583Y-59585000D01*
X107530831Y-59579019D01*
X107533761Y-59572876D01*
X107536365Y-59566588D01*
X107538637Y-59560172D01*
X107540570Y-59553646D01*
X107542159Y-59547029D01*
X107543399Y-59540336D01*
X107544288Y-59533589D01*
X107544822Y-59526804D01*
X107545000Y-59520000D01*
X107545000Y-58530000D01*
X108055000Y-58530000D01*
X108055000Y-59520000D01*
%TD*%
D13*
%TO.C,R4*%
X99720000Y-73080000D03*
X98700000Y-73080000D03*
%TD*%
D14*
%TO.C,C2*%
X97032000Y-73000000D03*
X96168000Y-73000000D03*
%TD*%
D15*
%TO.C,Q1*%
X115400000Y-74490000D03*
X116200000Y-74490000D03*
D16*
X115800000Y-73510000D03*
%TD*%
D17*
%TO.C,C1*%
X104707000Y-72700000D03*
X103893000Y-72700000D03*
%TD*%
D18*
%TO.C,R5*%
X98612305Y-68700000D03*
X99632305Y-68700000D03*
%TD*%
D19*
%TO.C,R7*%
X99200000Y-65290000D03*
X99200000Y-66310000D03*
%TD*%
D20*
%TO.C,D1*%
X111950000Y-73800000D03*
X107650000Y-73800000D03*
%TD*%
D18*
%TO.C,R6*%
X98690000Y-71880000D03*
X99710000Y-71880000D03*
%TD*%
D21*
%TO.C,L1*%
X120285000Y-73900000D03*
X119315000Y-73900000D03*
%TD*%
D22*
%TO.C,Q2*%
X96690000Y-66400000D03*
X96690000Y-65600000D03*
D23*
X95710000Y-66000000D03*
%TD*%
D24*
%TO.C,U1*%
X102025001Y-71078000D03*
X102674999Y-71078000D03*
X103325001Y-71078000D03*
X103974999Y-71078000D03*
X103974999Y-67522000D03*
X103325001Y-67522000D03*
X102674999Y-67522000D03*
X102025001Y-67522000D03*
D25*
X103000000Y-68900000D03*
%TD*%
D26*
%TO.C,IC1*%
X94142305Y-68925000D03*
X94142305Y-69575000D03*
X94142305Y-70225000D03*
X94142305Y-70875000D03*
X96742305Y-70875000D03*
X96742305Y-70225000D03*
X96742305Y-69575000D03*
X96742305Y-68925000D03*
%TD*%
D13*
%TO.C,R2*%
X119290000Y-75300000D03*
X120310000Y-75300000D03*
%TD*%
D18*
%TO.C,R3*%
X98622305Y-69900000D03*
X99642305Y-69900000D03*
%TD*%
%TO.C,R1*%
X119290000Y-72600000D03*
X120310000Y-72600000D03*
%TD*%
M02*
